<?xml version="1.0" encoding="utf-8" standalone="no"?>
<!DOCTYPE svg PUBLIC "-//W3C//DTD SVG 1.1//EN"
  "http://www.w3.org/Graphics/SVG/1.1/DTD/svg11.dtd">
<svg xmlns:xlink="http://www.w3.org/1999/xlink" width="609.003125pt" height="325.755469pt" viewBox="0 0 609.003125 325.755469" xmlns="http://www.w3.org/2000/svg" version="1.1">
 <metadata>
  <rdf:RDF xmlns:dc="http://purl.org/dc/elements/1.1/" xmlns:cc="http://creativecommons.org/ns#" xmlns:rdf="http://www.w3.org/1999/02/22-rdf-syntax-ns#">
   <cc:Work>
    <dc:type rdf:resource="http://purl.org/dc/dcmitype/StillImage"/>
    <dc:date>2026-05-26T19:08:43.109160</dc:date>
    <dc:format>image/svg+xml</dc:format>
    <dc:creator>
     <cc:Agent>
      <dc:title>Matplotlib v3.6.0, https://matplotlib.org/</dc:title>
     </cc:Agent>
    </dc:creator>
   </cc:Work>
  </rdf:RDF>
 </metadata>
 <defs>
  <style type="text/css">*{stroke-linejoin: round; stroke-linecap: butt}</style>
 </defs>
 <g id="figure_1">
  <g id="patch_1">
   <path d="M -0 325.755469 
L 609.003125 325.755469 
L 609.003125 0 
L -0 0 
z
" style="fill: #ffffff"/>
  </g>
  <g id="axes_1">
   <g id="patch_2">
    <path d="M 43.803125 288.199219 
L 601.803125 288.199219 
L 601.803125 10.999219 
L 43.803125 10.999219 
z
" style="fill: #ffffff"/>
   </g>
   <g id="PolyCollection_1">
    <defs>
     <path id="m9aeb441ddb" d="M 41.51624 -47.219328 
L 41.51624 -43.67601 
L 46.09001 -43.67601 
L 46.09001 -46.635197 
L 50.663781 -46.635197 
L 50.663781 -45.127094 
L 55.237551 -45.127094 
L 55.237551 -44.553075 
L 59.811322 -44.553075 
L 59.811322 -42.613387 
L 64.385092 -42.613387 
L 64.385092 -41.071038 
L 68.958863 -41.071038 
L 68.958863 -41.173737 
L 73.532633 -41.173737 
L 73.532633 -44.538594 
L 78.106404 -44.538594 
L 78.106404 -46.729073 
L 82.680174 -46.729073 
L 82.680174 -48.06593 
L 87.253945 -48.06593 
L 87.253945 -48.490511 
L 91.827715 -48.490511 
L 91.827715 -43.086671 
L 96.401486 -43.086671 
L 96.401486 -41.88662 
L 100.975256 -41.88662 
L 100.975256 -44.78908 
L 105.549027 -44.78908 
L 105.549027 -47.013767 
L 110.122797 -47.013767 
L 110.122797 -47.975097 
L 114.696568 -47.975097 
L 114.696568 -45.217797 
L 119.270338 -45.217797 
L 119.270338 -43.429174 
L 123.844109 -43.429174 
L 123.844109 -44.183425 
L 128.417879 -44.183425 
L 128.417879 -44.666223 
L 132.99165 -44.666223 
L 132.99165 -45.339351 
L 137.56542 -45.339351 
L 137.56542 -45.842358 
L 142.139191 -45.842358 
L 142.139191 -44.453272 
L 146.712961 -44.453272 
L 146.712961 -45.468644 
L 151.286732 -45.468644 
L 151.286732 -46.742015 
L 155.860502 -46.742015 
L 155.860502 -54.337675 
L 160.434273 -54.337675 
L 160.434273 -67.821042 
L 165.008043 -67.821042 
L 165.008043 -73.954544 
L 169.581814 -73.954544 
L 169.581814 -54.251825 
L 174.155584 -54.251825 
L 174.155584 -45.816101 
L 178.729355 -45.816101 
L 178.729355 -42.35323 
L 183.303125 -42.35323 
L 183.303125 -42.298837 
L 187.876895 -42.298837 
L 187.876895 -44.174083 
L 192.450666 -44.174083 
L 192.450666 -44.437862 
L 197.024436 -44.437862 
L 197.024436 -46.303481 
L 201.598207 -46.303481 
L 201.598207 -50.064387 
L 206.171977 -50.064387 
L 206.171977 -50.590633 
L 210.745748 -50.590633 
L 210.745748 -50.548533 
L 215.319518 -50.548533 
L 215.319518 -44.615691 
L 219.893289 -44.615691 
L 219.893289 -45.604376 
L 224.467059 -45.604376 
L 224.467059 -55.426602 
L 229.04083 -55.426602 
L 229.04083 -61.004214 
L 233.6146 -61.004214 
L 233.6146 -52.830227 
L 238.188371 -52.830227 
L 238.188371 -57.126202 
L 242.762141 -57.126202 
L 242.762141 -51.915026 
L 247.335912 -51.915026 
L 247.335912 -44.917795 
L 251.909682 -44.917795 
L 251.909682 -49.806706 
L 256.483453 -49.806706 
L 256.483453 -47.507777 
L 261.057223 -47.507777 
L 261.057223 -47.03414 
L 265.630994 -47.03414 
L 265.630994 -47.061675 
L 270.204764 -47.061675 
L 270.204764 -45.84762 
L 274.778535 -45.84762 
L 274.778535 -42.372159 
L 279.352305 -42.372159 
L 279.352305 -47.368499 
L 283.926076 -47.368499 
L 283.926076 -51.118189 
L 288.499846 -51.118189 
L 288.499846 -61.385065 
L 293.073617 -61.385065 
L 293.073617 -57.467734 
L 297.647387 -57.467734 
L 297.647387 -46.512816 
L 302.221158 -46.512816 
L 302.221158 -43.782759 
L 306.794928 -43.782759 
L 306.794928 -41.854715 
L 311.368699 -41.854715 
L 311.368699 -41.676964 
L 315.942469 -41.676964 
L 315.942469 -44.108954 
L 320.51624 -44.108954 
L 320.51624 -42.739768 
L 325.09001 -42.739768 
L 325.09001 -46.617017 
L 329.663781 -46.617017 
L 329.663781 -45.129486 
L 334.237551 -45.129486 
L 334.237551 -42.166934 
L 338.811322 -42.166934 
L 338.811322 -39.902227 
L 343.385092 -39.902227 
L 343.385092 -44.632806 
L 347.958863 -44.632806 
L 347.958863 -65.959832 
L 352.532633 -65.959832 
L 352.532633 -121.036724 
L 357.106404 -121.036724 
L 357.106404 -119.084679 
L 361.680174 -119.084679 
L 361.680174 -64.258643 
L 366.253945 -64.258643 
L 366.253945 -55.346373 
L 370.827715 -55.346373 
L 370.827715 -69.948127 
L 375.401486 -69.948127 
L 375.401486 -71.899598 
L 379.975256 -71.899598 
L 379.975256 -48.061324 
L 384.549027 -48.061324 
L 384.549027 -45.023353 
L 389.122797 -45.023353 
L 389.122797 -47.041164 
L 393.696568 -47.041164 
L 393.696568 -66.585704 
L 398.270338 -66.585704 
L 398.270338 -128.703503 
L 402.844109 -128.703503 
L 402.844109 -123.567634 
L 407.417879 -123.567634 
L 407.417879 -60.621538 
L 411.99165 -60.621538 
L 411.99165 -47.686613 
L 416.56542 -47.686613 
L 416.56542 -46.158338 
L 421.139191 -46.158338 
L 421.139191 -77.073146 
L 425.712961 -77.073146 
L 425.712961 -179.973991 
L 430.286732 -179.973991 
L 430.286732 -208.638097 
L 434.860502 -208.638097 
L 434.860502 -228.187013 
L 439.434273 -228.187013 
L 439.434273 -199.883293 
L 444.008043 -199.883293 
L 444.008043 -77.909711 
L 448.581814 -77.909711 
L 448.581814 -48.332939 
L 453.155584 -48.332939 
L 453.155584 -44.603734 
L 457.729355 -44.603734 
L 457.729355 -44.230039 
L 462.303125 -44.230039 
L 462.303125 -50.596389 
L 466.876895 -50.596389 
L 466.876895 -62.487582 
L 471.450666 -62.487582 
L 471.450666 -67.812797 
L 476.024436 -67.812797 
L 476.024436 -55.404536 
L 480.598207 -55.404536 
L 480.598207 -49.884787 
L 485.171977 -49.884787 
L 485.171977 -46.454183 
L 489.745748 -46.454183 
L 489.745748 -50.850491 
L 494.319518 -50.850491 
L 494.319518 -57.360014 
L 498.893289 -57.360014 
L 498.893289 -71.898696 
L 503.467059 -71.898696 
L 503.467059 -67.59261 
L 508.04083 -67.59261 
L 508.04083 -58.442844 
L 512.6146 -58.442844 
L 512.6146 -48.271331 
L 517.188371 -48.271331 
L 517.188371 -45.042796 
L 521.762141 -45.042796 
L 521.762141 -47.82416 
L 526.335912 -47.82416 
L 526.335912 -46.251488 
L 530.909682 -46.251488 
L 530.909682 -41.836048 
L 535.483453 -41.836048 
L 535.483453 -40.506797 
L 540.057223 -40.506797 
L 540.057223 -43.2494 
L 544.630994 -43.2494 
L 544.630994 -43.655996 
L 549.204764 -43.655996 
L 549.204764 -45.535826 
L 553.778535 -45.535826 
L 553.778535 -47.29354 
L 558.352305 -47.29354 
L 558.352305 -45.627628 
L 562.926076 -45.627628 
L 562.926076 -45.38466 
L 567.499846 -45.38466 
L 567.499846 -44.899692 
L 572.073617 -44.899692 
L 572.073617 -45.264613 
L 576.647387 -45.264613 
L 576.647387 -41.9285 
L 581.221158 -41.9285 
L 581.221158 -43.657983 
L 585.794928 -43.657983 
L 585.794928 -45.996685 
L 590.368699 -45.996685 
L 590.368699 -44.324836 
L 594.942469 -44.324836 
L 594.942469 -43.451179 
L 599.51624 -43.451179 
L 601.803125 -47.23962 
L 601.803125 -47.23962 
L 601.803125 -50.782937 
L 601.803125 -50.782937 
L 601.803125 -50.782937 
L 599.51624 -46.994497 
L 594.942469 -46.994497 
L 594.942469 -47.868153 
L 590.368699 -47.868153 
L 590.368699 -49.540003 
L 585.794928 -49.540003 
L 585.794928 -47.201301 
L 581.221158 -47.201301 
L 581.221158 -45.471818 
L 576.647387 -45.471818 
L 576.647387 -48.807931 
L 572.073617 -48.807931 
L 572.073617 -48.44301 
L 567.499846 -48.44301 
L 567.499846 -48.927978 
L 562.926076 -48.927978 
L 562.926076 -49.170946 
L 558.352305 -49.170946 
L 558.352305 -50.836858 
L 553.778535 -50.836858 
L 553.778535 -49.079143 
L 549.204764 -49.079143 
L 549.204764 -47.199314 
L 544.630994 -47.199314 
L 544.630994 -46.792718 
L 540.057223 -46.792718 
L 540.057223 -44.050114 
L 535.483453 -44.050114 
L 535.483453 -45.379366 
L 530.909682 -45.379366 
L 530.909682 -49.794806 
L 526.335912 -49.794806 
L 526.335912 -51.367478 
L 521.762141 -51.367478 
L 521.762141 -48.586114 
L 517.188371 -48.586114 
L 517.188371 -51.814649 
L 512.6146 -51.814649 
L 512.6146 -61.986162 
L 508.04083 -61.986162 
L 508.04083 -71.135928 
L 503.467059 -71.135928 
L 503.467059 -75.442014 
L 498.893289 -75.442014 
L 498.893289 -60.903332 
L 494.319518 -60.903332 
L 494.319518 -54.393808 
L 489.745748 -54.393808 
L 489.745748 -49.997501 
L 485.171977 -49.997501 
L 485.171977 -53.428104 
L 480.598207 -53.428104 
L 480.598207 -58.947854 
L 476.024436 -58.947854 
L 476.024436 -71.356115 
L 471.450666 -71.356115 
L 471.450666 -66.0309 
L 466.876895 -66.0309 
L 466.876895 -54.139707 
L 462.303125 -54.139707 
L 462.303125 -47.773356 
L 457.729355 -47.773356 
L 457.729355 -48.147052 
L 453.155584 -48.147052 
L 453.155584 -51.876257 
L 448.581814 -51.876257 
L 448.581814 -81.453029 
L 444.008043 -81.453029 
L 444.008043 -203.42661 
L 439.434273 -203.42661 
L 439.434273 -231.730331 
L 434.860502 -231.730331 
L 434.860502 -212.181415 
L 430.286732 -212.181415 
L 430.286732 -183.517309 
L 425.712961 -183.517309 
L 425.712961 -80.616464 
L 421.139191 -80.616464 
L 421.139191 -49.701656 
L 416.56542 -49.701656 
L 416.56542 -51.229931 
L 411.99165 -51.229931 
L 411.99165 -64.164855 
L 407.417879 -64.164855 
L 407.417879 -127.110952 
L 402.844109 -127.110952 
L 402.844109 -132.24682 
L 398.270338 -132.24682 
L 398.270338 -70.129022 
L 393.696568 -70.129022 
L 393.696568 -50.584482 
L 389.122797 -50.584482 
L 389.122797 -48.566671 
L 384.549027 -48.566671 
L 384.549027 -51.604641 
L 379.975256 -51.604641 
L 379.975256 -75.442916 
L 375.401486 -75.442916 
L 375.401486 -73.491445 
L 370.827715 -73.491445 
L 370.827715 -58.88969 
L 366.253945 -58.88969 
L 366.253945 -67.801961 
L 361.680174 -67.801961 
L 361.680174 -122.627997 
L 357.106404 -122.627997 
L 357.106404 -124.580041 
L 352.532633 -124.580041 
L 352.532633 -69.503149 
L 347.958863 -69.503149 
L 347.958863 -48.176124 
L 343.385092 -48.176124 
L 343.385092 -43.445544 
L 338.811322 -43.445544 
L 338.811322 -45.710252 
L 334.237551 -45.710252 
L 334.237551 -48.672804 
L 329.663781 -48.672804 
L 329.663781 -50.160334 
L 325.09001 -50.160334 
L 325.09001 -46.283086 
L 320.51624 -46.283086 
L 320.51624 -47.652272 
L 315.942469 -47.652272 
L 315.942469 -45.220282 
L 311.368699 -45.220282 
L 311.368699 -45.398033 
L 306.794928 -45.398033 
L 306.794928 -47.326077 
L 302.221158 -47.326077 
L 302.221158 -50.056133 
L 297.647387 -50.056133 
L 297.647387 -61.011052 
L 293.073617 -61.011052 
L 293.073617 -64.928382 
L 288.499846 -64.928382 
L 288.499846 -54.661507 
L 283.926076 -54.661507 
L 283.926076 -50.911817 
L 279.352305 -50.911817 
L 279.352305 -45.915477 
L 274.778535 -45.915477 
L 274.778535 -49.390938 
L 270.204764 -49.390938 
L 270.204764 -50.604993 
L 265.630994 -50.604993 
L 265.630994 -50.577458 
L 261.057223 -50.577458 
L 261.057223 -51.051095 
L 256.483453 -51.051095 
L 256.483453 -53.350023 
L 251.909682 -53.350023 
L 251.909682 -48.461113 
L 247.335912 -48.461113 
L 247.335912 -55.458344 
L 242.762141 -55.458344 
L 242.762141 -60.66952 
L 238.188371 -60.66952 
L 238.188371 -56.373544 
L 233.6146 -56.373544 
L 233.6146 -64.547532 
L 229.04083 -64.547532 
L 229.04083 -58.969919 
L 224.467059 -58.969919 
L 224.467059 -49.147694 
L 219.893289 -49.147694 
L 219.893289 -48.159008 
L 215.319518 -48.159008 
L 215.319518 -54.091851 
L 210.745748 -54.091851 
L 210.745748 -54.133951 
L 206.171977 -54.133951 
L 206.171977 -53.607705 
L 201.598207 -53.607705 
L 201.598207 -49.846799 
L 197.024436 -49.846799 
L 197.024436 -47.98118 
L 192.450666 -47.98118 
L 192.450666 -47.717401 
L 187.876895 -47.717401 
L 187.876895 -45.842154 
L 183.303125 -45.842154 
L 183.303125 -45.896548 
L 178.729355 -45.896548 
L 178.729355 -49.359419 
L 174.155584 -49.359419 
L 174.155584 -57.795142 
L 169.581814 -57.795142 
L 169.581814 -77.497861 
L 165.008043 -77.497861 
L 165.008043 -71.36436 
L 160.434273 -71.36436 
L 160.434273 -57.880993 
L 155.860502 -57.880993 
L 155.860502 -50.285333 
L 151.286732 -50.285333 
L 151.286732 -49.011962 
L 146.712961 -49.011962 
L 146.712961 -47.99659 
L 142.139191 -47.99659 
L 142.139191 -49.385675 
L 137.56542 -49.385675 
L 137.56542 -48.882669 
L 132.99165 -48.882669 
L 132.99165 -48.20954 
L 128.417879 -48.20954 
L 128.417879 -47.726743 
L 123.844109 -47.726743 
L 123.844109 -46.972492 
L 119.270338 -46.972492 
L 119.270338 -48.761114 
L 114.696568 -48.761114 
L 114.696568 -51.518415 
L 110.122797 -51.518415 
L 110.122797 -50.557085 
L 105.549027 -50.557085 
L 105.549027 -48.332398 
L 100.975256 -48.332398 
L 100.975256 -45.429938 
L 96.401486 -45.429938 
L 96.401486 -46.629989 
L 91.827715 -46.629989 
L 91.827715 -52.033829 
L 87.253945 -52.033829 
L 87.253945 -51.609248 
L 82.680174 -51.609248 
L 82.680174 -50.272391 
L 78.106404 -50.272391 
L 78.106404 -48.081912 
L 73.532633 -48.081912 
L 73.532633 -44.717055 
L 68.958863 -44.717055 
L 68.958863 -44.614356 
L 64.385092 -44.614356 
L 64.385092 -46.156704 
L 59.811322 -46.156704 
L 59.811322 -48.096393 
L 55.237551 -48.096393 
L 55.237551 -48.670412 
L 50.663781 -48.670412 
L 50.663781 -50.178515 
L 46.09001 -50.178515 
L 46.09001 -47.219328 
L 41.51624 -47.219328 
z
" style="stroke: #000000; stroke-opacity: 0.2"/>
    </defs>
    <g clip-path="url(#p1452dcd282)">
     <use xlink:href="#m9aeb441ddb" x="0" y="325.755469" style="fill-opacity: 0.2; stroke: #000000; stroke-opacity: 0.2"/>
    </g>
   </g>
   <g id="matplotlib.axis_1">
    <g id="xtick_1">
     <g id="line2d_1">
      <defs>
       <path id="mbccf0c8cd5" d="M 0 0 
L 0 3.5 
" style="stroke: #000000; stroke-width: 0.8"/>
      </defs>
      <g>
       <use xlink:href="#mbccf0c8cd5" x="90.462763" y="288.199219" style="stroke: #000000; stroke-width: 0.8"/>
      </g>
     </g>
     <g id="text_1">
      <!-- 102.46 -->
      <g transform="translate(72.96745 302.797656) scale(0.1 -0.1)">
       <defs>
        <path id="DejaVuSans-31" d="M 794 531 
L 1825 531 
L 1825 4091 
L 703 3866 
L 703 4441 
L 1819 4666 
L 2450 4666 
L 2450 531 
L 3481 531 
L 3481 0 
L 794 0 
L 794 531 
z
" transform="scale(0.015625)"/>
        <path id="DejaVuSans-30" d="M 2034 4250 
Q 1547 4250 1301 3770 
Q 1056 3291 1056 2328 
Q 1056 1369 1301 889 
Q 1547 409 2034 409 
Q 2525 409 2770 889 
Q 3016 1369 3016 2328 
Q 3016 3291 2770 3770 
Q 2525 4250 2034 4250 
z
M 2034 4750 
Q 2819 4750 3233 4129 
Q 3647 3509 3647 2328 
Q 3647 1150 3233 529 
Q 2819 -91 2034 -91 
Q 1250 -91 836 529 
Q 422 1150 422 2328 
Q 422 3509 836 4129 
Q 1250 4750 2034 4750 
z
" transform="scale(0.015625)"/>
        <path id="DejaVuSans-32" d="M 1228 531 
L 3431 531 
L 3431 0 
L 469 0 
L 469 531 
Q 828 903 1448 1529 
Q 2069 2156 2228 2338 
Q 2531 2678 2651 2914 
Q 2772 3150 2772 3378 
Q 2772 3750 2511 3984 
Q 2250 4219 1831 4219 
Q 1534 4219 1204 4116 
Q 875 4013 500 3803 
L 500 4441 
Q 881 4594 1212 4672 
Q 1544 4750 1819 4750 
Q 2544 4750 2975 4387 
Q 3406 4025 3406 3419 
Q 3406 3131 3298 2873 
Q 3191 2616 2906 2266 
Q 2828 2175 2409 1742 
Q 1991 1309 1228 531 
z
" transform="scale(0.015625)"/>
        <path id="DejaVuSans-2e" d="M 684 794 
L 1344 794 
L 1344 0 
L 684 0 
L 684 794 
z
" transform="scale(0.015625)"/>
        <path id="DejaVuSans-34" d="M 2419 4116 
L 825 1625 
L 2419 1625 
L 2419 4116 
z
M 2253 4666 
L 3047 4666 
L 3047 1625 
L 3713 1625 
L 3713 1100 
L 3047 1100 
L 3047 0 
L 2419 0 
L 2419 1100 
L 313 1100 
L 313 1709 
L 2253 4666 
z
" transform="scale(0.015625)"/>
        <path id="DejaVuSans-36" d="M 2113 2584 
Q 1688 2584 1439 2293 
Q 1191 2003 1191 1497 
Q 1191 994 1439 701 
Q 1688 409 2113 409 
Q 2538 409 2786 701 
Q 3034 994 3034 1497 
Q 3034 2003 2786 2293 
Q 2538 2584 2113 2584 
z
M 3366 4563 
L 3366 3988 
Q 3128 4100 2886 4159 
Q 2644 4219 2406 4219 
Q 1781 4219 1451 3797 
Q 1122 3375 1075 2522 
Q 1259 2794 1537 2939 
Q 1816 3084 2150 3084 
Q 2853 3084 3261 2657 
Q 3669 2231 3669 1497 
Q 3669 778 3244 343 
Q 2819 -91 2113 -91 
Q 1303 -91 875 529 
Q 447 1150 447 2328 
Q 447 3434 972 4092 
Q 1497 4750 2381 4750 
Q 2619 4750 2861 4703 
Q 3103 4656 3366 4563 
z
" transform="scale(0.015625)"/>
       </defs>
       <use xlink:href="#DejaVuSans-31"/>
       <use xlink:href="#DejaVuSans-30" x="63.623047"/>
       <use xlink:href="#DejaVuSans-32" x="127.246094"/>
       <use xlink:href="#DejaVuSans-2e" x="190.869141"/>
       <use xlink:href="#DejaVuSans-34" x="222.65625"/>
       <use xlink:href="#DejaVuSans-36" x="286.279297"/>
      </g>
     </g>
    </g>
    <g id="xtick_2">
     <g id="line2d_2">
      <g>
       <use xlink:href="#mbccf0c8cd5" x="184.12988" y="288.199219" style="stroke: #000000; stroke-width: 0.8"/>
      </g>
     </g>
     <g id="text_2">
      <!-- 102.48 -->
      <g transform="translate(166.634567 302.797656) scale(0.1 -0.1)">
       <defs>
        <path id="DejaVuSans-38" d="M 2034 2216 
Q 1584 2216 1326 1975 
Q 1069 1734 1069 1313 
Q 1069 891 1326 650 
Q 1584 409 2034 409 
Q 2484 409 2743 651 
Q 3003 894 3003 1313 
Q 3003 1734 2745 1975 
Q 2488 2216 2034 2216 
z
M 1403 2484 
Q 997 2584 770 2862 
Q 544 3141 544 3541 
Q 544 4100 942 4425 
Q 1341 4750 2034 4750 
Q 2731 4750 3128 4425 
Q 3525 4100 3525 3541 
Q 3525 3141 3298 2862 
Q 3072 2584 2669 2484 
Q 3125 2378 3379 2068 
Q 3634 1759 3634 1313 
Q 3634 634 3220 271 
Q 2806 -91 2034 -91 
Q 1263 -91 848 271 
Q 434 634 434 1313 
Q 434 1759 690 2068 
Q 947 2378 1403 2484 
z
M 1172 3481 
Q 1172 3119 1398 2916 
Q 1625 2713 2034 2713 
Q 2441 2713 2670 2916 
Q 2900 3119 2900 3481 
Q 2900 3844 2670 4047 
Q 2441 4250 2034 4250 
Q 1625 4250 1398 4047 
Q 1172 3844 1172 3481 
z
" transform="scale(0.015625)"/>
       </defs>
       <use xlink:href="#DejaVuSans-31"/>
       <use xlink:href="#DejaVuSans-30" x="63.623047"/>
       <use xlink:href="#DejaVuSans-32" x="127.246094"/>
       <use xlink:href="#DejaVuSans-2e" x="190.869141"/>
       <use xlink:href="#DejaVuSans-34" x="222.65625"/>
       <use xlink:href="#DejaVuSans-38" x="286.279297"/>
      </g>
     </g>
    </g>
    <g id="xtick_3">
     <g id="line2d_3">
      <g>
       <use xlink:href="#mbccf0c8cd5" x="277.796996" y="288.199219" style="stroke: #000000; stroke-width: 0.8"/>
      </g>
     </g>
     <g id="text_3">
      <!-- 102.50 -->
      <g transform="translate(260.301684 302.797656) scale(0.1 -0.1)">
       <defs>
        <path id="DejaVuSans-35" d="M 691 4666 
L 3169 4666 
L 3169 4134 
L 1269 4134 
L 1269 2991 
Q 1406 3038 1543 3061 
Q 1681 3084 1819 3084 
Q 2600 3084 3056 2656 
Q 3513 2228 3513 1497 
Q 3513 744 3044 326 
Q 2575 -91 1722 -91 
Q 1428 -91 1123 -41 
Q 819 9 494 109 
L 494 744 
Q 775 591 1075 516 
Q 1375 441 1709 441 
Q 2250 441 2565 725 
Q 2881 1009 2881 1497 
Q 2881 1984 2565 2268 
Q 2250 2553 1709 2553 
Q 1456 2553 1204 2497 
Q 953 2441 691 2322 
L 691 4666 
z
" transform="scale(0.015625)"/>
       </defs>
       <use xlink:href="#DejaVuSans-31"/>
       <use xlink:href="#DejaVuSans-30" x="63.623047"/>
       <use xlink:href="#DejaVuSans-32" x="127.246094"/>
       <use xlink:href="#DejaVuSans-2e" x="190.869141"/>
       <use xlink:href="#DejaVuSans-35" x="222.65625"/>
       <use xlink:href="#DejaVuSans-30" x="286.279297"/>
      </g>
     </g>
    </g>
    <g id="xtick_4">
     <g id="line2d_4">
      <g>
       <use xlink:href="#mbccf0c8cd5" x="371.464113" y="288.199219" style="stroke: #000000; stroke-width: 0.8"/>
      </g>
     </g>
     <g id="text_4">
      <!-- 102.52 -->
      <g transform="translate(353.968801 302.797656) scale(0.1 -0.1)">
       <use xlink:href="#DejaVuSans-31"/>
       <use xlink:href="#DejaVuSans-30" x="63.623047"/>
       <use xlink:href="#DejaVuSans-32" x="127.246094"/>
       <use xlink:href="#DejaVuSans-2e" x="190.869141"/>
       <use xlink:href="#DejaVuSans-35" x="222.65625"/>
       <use xlink:href="#DejaVuSans-32" x="286.279297"/>
      </g>
     </g>
    </g>
    <g id="xtick_5">
     <g id="line2d_5">
      <g>
       <use xlink:href="#mbccf0c8cd5" x="465.13123" y="288.199219" style="stroke: #000000; stroke-width: 0.8"/>
      </g>
     </g>
     <g id="text_5">
      <!-- 102.54 -->
      <g transform="translate(447.635917 302.797656) scale(0.1 -0.1)">
       <use xlink:href="#DejaVuSans-31"/>
       <use xlink:href="#DejaVuSans-30" x="63.623047"/>
       <use xlink:href="#DejaVuSans-32" x="127.246094"/>
       <use xlink:href="#DejaVuSans-2e" x="190.869141"/>
       <use xlink:href="#DejaVuSans-35" x="222.65625"/>
       <use xlink:href="#DejaVuSans-34" x="286.279297"/>
      </g>
     </g>
    </g>
    <g id="xtick_6">
     <g id="line2d_6">
      <g>
       <use xlink:href="#mbccf0c8cd5" x="558.798347" y="288.199219" style="stroke: #000000; stroke-width: 0.8"/>
      </g>
     </g>
     <g id="text_6">
      <!-- 102.56 -->
      <g transform="translate(541.303034 302.797656) scale(0.1 -0.1)">
       <use xlink:href="#DejaVuSans-31"/>
       <use xlink:href="#DejaVuSans-30" x="63.623047"/>
       <use xlink:href="#DejaVuSans-32" x="127.246094"/>
       <use xlink:href="#DejaVuSans-2e" x="190.869141"/>
       <use xlink:href="#DejaVuSans-35" x="222.65625"/>
       <use xlink:href="#DejaVuSans-36" x="286.279297"/>
      </g>
     </g>
    </g>
    <g id="text_7">
     <!-- frequency (GHz) -->
     <g transform="translate(281.977344 316.475781) scale(0.1 -0.1)">
      <defs>
       <path id="DejaVuSans-66" d="M 2375 4863 
L 2375 4384 
L 1825 4384 
Q 1516 4384 1395 4259 
Q 1275 4134 1275 3809 
L 1275 3500 
L 2222 3500 
L 2222 3053 
L 1275 3053 
L 1275 0 
L 697 0 
L 697 3053 
L 147 3053 
L 147 3500 
L 697 3500 
L 697 3744 
Q 697 4328 969 4595 
Q 1241 4863 1831 4863 
L 2375 4863 
z
" transform="scale(0.015625)"/>
       <path id="DejaVuSans-72" d="M 2631 2963 
Q 2534 3019 2420 3045 
Q 2306 3072 2169 3072 
Q 1681 3072 1420 2755 
Q 1159 2438 1159 1844 
L 1159 0 
L 581 0 
L 581 3500 
L 1159 3500 
L 1159 2956 
Q 1341 3275 1631 3429 
Q 1922 3584 2338 3584 
Q 2397 3584 2469 3576 
Q 2541 3569 2628 3553 
L 2631 2963 
z
" transform="scale(0.015625)"/>
       <path id="DejaVuSans-65" d="M 3597 1894 
L 3597 1613 
L 953 1613 
Q 991 1019 1311 708 
Q 1631 397 2203 397 
Q 2534 397 2845 478 
Q 3156 559 3463 722 
L 3463 178 
Q 3153 47 2828 -22 
Q 2503 -91 2169 -91 
Q 1331 -91 842 396 
Q 353 884 353 1716 
Q 353 2575 817 3079 
Q 1281 3584 2069 3584 
Q 2775 3584 3186 3129 
Q 3597 2675 3597 1894 
z
M 3022 2063 
Q 3016 2534 2758 2815 
Q 2500 3097 2075 3097 
Q 1594 3097 1305 2825 
Q 1016 2553 972 2059 
L 3022 2063 
z
" transform="scale(0.015625)"/>
       <path id="DejaVuSans-71" d="M 947 1747 
Q 947 1113 1208 752 
Q 1469 391 1925 391 
Q 2381 391 2643 752 
Q 2906 1113 2906 1747 
Q 2906 2381 2643 2742 
Q 2381 3103 1925 3103 
Q 1469 3103 1208 2742 
Q 947 2381 947 1747 
z
M 2906 525 
Q 2725 213 2448 61 
Q 2172 -91 1784 -91 
Q 1150 -91 751 415 
Q 353 922 353 1747 
Q 353 2572 751 3078 
Q 1150 3584 1784 3584 
Q 2172 3584 2448 3432 
Q 2725 3281 2906 2969 
L 2906 3500 
L 3481 3500 
L 3481 -1331 
L 2906 -1331 
L 2906 525 
z
" transform="scale(0.015625)"/>
       <path id="DejaVuSans-75" d="M 544 1381 
L 544 3500 
L 1119 3500 
L 1119 1403 
Q 1119 906 1312 657 
Q 1506 409 1894 409 
Q 2359 409 2629 706 
Q 2900 1003 2900 1516 
L 2900 3500 
L 3475 3500 
L 3475 0 
L 2900 0 
L 2900 538 
Q 2691 219 2414 64 
Q 2138 -91 1772 -91 
Q 1169 -91 856 284 
Q 544 659 544 1381 
z
M 1991 3584 
L 1991 3584 
z
" transform="scale(0.015625)"/>
       <path id="DejaVuSans-6e" d="M 3513 2113 
L 3513 0 
L 2938 0 
L 2938 2094 
Q 2938 2591 2744 2837 
Q 2550 3084 2163 3084 
Q 1697 3084 1428 2787 
Q 1159 2491 1159 1978 
L 1159 0 
L 581 0 
L 581 3500 
L 1159 3500 
L 1159 2956 
Q 1366 3272 1645 3428 
Q 1925 3584 2291 3584 
Q 2894 3584 3203 3211 
Q 3513 2838 3513 2113 
z
" transform="scale(0.015625)"/>
       <path id="DejaVuSans-63" d="M 3122 3366 
L 3122 2828 
Q 2878 2963 2633 3030 
Q 2388 3097 2138 3097 
Q 1578 3097 1268 2742 
Q 959 2388 959 1747 
Q 959 1106 1268 751 
Q 1578 397 2138 397 
Q 2388 397 2633 464 
Q 2878 531 3122 666 
L 3122 134 
Q 2881 22 2623 -34 
Q 2366 -91 2075 -91 
Q 1284 -91 818 406 
Q 353 903 353 1747 
Q 353 2603 823 3093 
Q 1294 3584 2113 3584 
Q 2378 3584 2631 3529 
Q 2884 3475 3122 3366 
z
" transform="scale(0.015625)"/>
       <path id="DejaVuSans-79" d="M 2059 -325 
Q 1816 -950 1584 -1140 
Q 1353 -1331 966 -1331 
L 506 -1331 
L 506 -850 
L 844 -850 
Q 1081 -850 1212 -737 
Q 1344 -625 1503 -206 
L 1606 56 
L 191 3500 
L 800 3500 
L 1894 763 
L 2988 3500 
L 3597 3500 
L 2059 -325 
z
" transform="scale(0.015625)"/>
       <path id="DejaVuSans-20" transform="scale(0.015625)"/>
       <path id="DejaVuSans-28" d="M 1984 4856 
Q 1566 4138 1362 3434 
Q 1159 2731 1159 2009 
Q 1159 1288 1364 580 
Q 1569 -128 1984 -844 
L 1484 -844 
Q 1016 -109 783 600 
Q 550 1309 550 2009 
Q 550 2706 781 3412 
Q 1013 4119 1484 4856 
L 1984 4856 
z
" transform="scale(0.015625)"/>
       <path id="DejaVuSans-47" d="M 3809 666 
L 3809 1919 
L 2778 1919 
L 2778 2438 
L 4434 2438 
L 4434 434 
Q 4069 175 3628 42 
Q 3188 -91 2688 -91 
Q 1594 -91 976 548 
Q 359 1188 359 2328 
Q 359 3472 976 4111 
Q 1594 4750 2688 4750 
Q 3144 4750 3555 4637 
Q 3966 4525 4313 4306 
L 4313 3634 
Q 3963 3931 3569 4081 
Q 3175 4231 2741 4231 
Q 1884 4231 1454 3753 
Q 1025 3275 1025 2328 
Q 1025 1384 1454 906 
Q 1884 428 2741 428 
Q 3075 428 3337 486 
Q 3600 544 3809 666 
z
" transform="scale(0.015625)"/>
       <path id="DejaVuSans-48" d="M 628 4666 
L 1259 4666 
L 1259 2753 
L 3553 2753 
L 3553 4666 
L 4184 4666 
L 4184 0 
L 3553 0 
L 3553 2222 
L 1259 2222 
L 1259 0 
L 628 0 
L 628 4666 
z
" transform="scale(0.015625)"/>
       <path id="DejaVuSans-7a" d="M 353 3500 
L 3084 3500 
L 3084 2975 
L 922 459 
L 3084 459 
L 3084 0 
L 275 0 
L 275 525 
L 2438 3041 
L 353 3041 
L 353 3500 
z
" transform="scale(0.015625)"/>
       <path id="DejaVuSans-29" d="M 513 4856 
L 1013 4856 
Q 1481 4119 1714 3412 
Q 1947 2706 1947 2009 
Q 1947 1309 1714 600 
Q 1481 -109 1013 -844 
L 513 -844 
Q 928 -128 1133 580 
Q 1338 1288 1338 2009 
Q 1338 2731 1133 3434 
Q 928 4138 513 4856 
z
" transform="scale(0.015625)"/>
      </defs>
      <use xlink:href="#DejaVuSans-66"/>
      <use xlink:href="#DejaVuSans-72" x="35.205078"/>
      <use xlink:href="#DejaVuSans-65" x="74.068359"/>
      <use xlink:href="#DejaVuSans-71" x="135.591797"/>
      <use xlink:href="#DejaVuSans-75" x="199.068359"/>
      <use xlink:href="#DejaVuSans-65" x="262.447266"/>
      <use xlink:href="#DejaVuSans-6e" x="323.970703"/>
      <use xlink:href="#DejaVuSans-63" x="387.349609"/>
      <use xlink:href="#DejaVuSans-79" x="442.330078"/>
      <use xlink:href="#DejaVuSans-20" x="501.509766"/>
      <use xlink:href="#DejaVuSans-28" x="533.296875"/>
      <use xlink:href="#DejaVuSans-47" x="572.310547"/>
      <use xlink:href="#DejaVuSans-48" x="649.800781"/>
      <use xlink:href="#DejaVuSans-7a" x="724.996094"/>
      <use xlink:href="#DejaVuSans-29" x="777.486328"/>
     </g>
    </g>
   </g>
   <g id="matplotlib.axis_2">
    <g id="ytick_1">
     <g id="line2d_7">
      <defs>
       <path id="m77cb7da461" d="M 0 0 
L -3.5 0 
" style="stroke: #000000; stroke-width: 0.8"/>
      </defs>
      <g>
       <use xlink:href="#m77cb7da461" x="43.803125" y="279.257283" style="stroke: #000000; stroke-width: 0.8"/>
      </g>
     </g>
     <g id="text_8">
      <!-- 0.0 -->
      <g transform="translate(20.9 283.056502) scale(0.1 -0.1)">
       <use xlink:href="#DejaVuSans-30"/>
       <use xlink:href="#DejaVuSans-2e" x="63.623047"/>
       <use xlink:href="#DejaVuSans-30" x="95.410156"/>
      </g>
     </g>
    </g>
    <g id="ytick_2">
     <g id="line2d_8">
      <g>
       <use xlink:href="#m77cb7da461" x="43.803125" y="234.547606" style="stroke: #000000; stroke-width: 0.8"/>
      </g>
     </g>
     <g id="text_9">
      <!-- 0.5 -->
      <g transform="translate(20.9 238.346825) scale(0.1 -0.1)">
       <use xlink:href="#DejaVuSans-30"/>
       <use xlink:href="#DejaVuSans-2e" x="63.623047"/>
       <use xlink:href="#DejaVuSans-35" x="95.410156"/>
      </g>
     </g>
    </g>
    <g id="ytick_3">
     <g id="line2d_9">
      <g>
       <use xlink:href="#m77cb7da461" x="43.803125" y="189.837928" style="stroke: #000000; stroke-width: 0.8"/>
      </g>
     </g>
     <g id="text_10">
      <!-- 1.0 -->
      <g transform="translate(20.9 193.637147) scale(0.1 -0.1)">
       <use xlink:href="#DejaVuSans-31"/>
       <use xlink:href="#DejaVuSans-2e" x="63.623047"/>
       <use xlink:href="#DejaVuSans-30" x="95.410156"/>
      </g>
     </g>
    </g>
    <g id="ytick_4">
     <g id="line2d_10">
      <g>
       <use xlink:href="#m77cb7da461" x="43.803125" y="145.128251" style="stroke: #000000; stroke-width: 0.8"/>
      </g>
     </g>
     <g id="text_11">
      <!-- 1.5 -->
      <g transform="translate(20.9 148.92747) scale(0.1 -0.1)">
       <use xlink:href="#DejaVuSans-31"/>
       <use xlink:href="#DejaVuSans-2e" x="63.623047"/>
       <use xlink:href="#DejaVuSans-35" x="95.410156"/>
      </g>
     </g>
    </g>
    <g id="ytick_5">
     <g id="line2d_11">
      <g>
       <use xlink:href="#m77cb7da461" x="43.803125" y="100.418574" style="stroke: #000000; stroke-width: 0.8"/>
      </g>
     </g>
     <g id="text_12">
      <!-- 2.0 -->
      <g transform="translate(20.9 104.217792) scale(0.1 -0.1)">
       <use xlink:href="#DejaVuSans-32"/>
       <use xlink:href="#DejaVuSans-2e" x="63.623047"/>
       <use xlink:href="#DejaVuSans-30" x="95.410156"/>
      </g>
     </g>
    </g>
    <g id="ytick_6">
     <g id="line2d_12">
      <g>
       <use xlink:href="#m77cb7da461" x="43.803125" y="55.708896" style="stroke: #000000; stroke-width: 0.8"/>
      </g>
     </g>
     <g id="text_13">
      <!-- 2.5 -->
      <g transform="translate(20.9 59.508115) scale(0.1 -0.1)">
       <use xlink:href="#DejaVuSans-32"/>
       <use xlink:href="#DejaVuSans-2e" x="63.623047"/>
       <use xlink:href="#DejaVuSans-35" x="95.410156"/>
      </g>
     </g>
    </g>
    <g id="ytick_7">
     <g id="line2d_13">
      <g>
       <use xlink:href="#m77cb7da461" x="43.803125" y="10.999219" style="stroke: #000000; stroke-width: 0.8"/>
      </g>
     </g>
     <g id="text_14">
      <!-- 3.0 -->
      <g transform="translate(20.9 14.798437) scale(0.1 -0.1)">
       <defs>
        <path id="DejaVuSans-33" d="M 2597 2516 
Q 3050 2419 3304 2112 
Q 3559 1806 3559 1356 
Q 3559 666 3084 287 
Q 2609 -91 1734 -91 
Q 1441 -91 1130 -33 
Q 819 25 488 141 
L 488 750 
Q 750 597 1062 519 
Q 1375 441 1716 441 
Q 2309 441 2620 675 
Q 2931 909 2931 1356 
Q 2931 1769 2642 2001 
Q 2353 2234 1838 2234 
L 1294 2234 
L 1294 2753 
L 1863 2753 
Q 2328 2753 2575 2939 
Q 2822 3125 2822 3475 
Q 2822 3834 2567 4026 
Q 2313 4219 1838 4219 
Q 1578 4219 1281 4162 
Q 984 4106 628 3988 
L 628 4550 
Q 988 4650 1302 4700 
Q 1616 4750 1894 4750 
Q 2613 4750 3031 4423 
Q 3450 4097 3450 3541 
Q 3450 3153 3228 2886 
Q 3006 2619 2597 2516 
z
" transform="scale(0.015625)"/>
       </defs>
       <use xlink:href="#DejaVuSans-33"/>
       <use xlink:href="#DejaVuSans-2e" x="63.623047"/>
       <use xlink:href="#DejaVuSans-30" x="95.410156"/>
      </g>
     </g>
    </g>
    <g id="text_15">
     <!-- Brightness Temperature $T$ (K) -->
     <g transform="translate(14.8 223.899219) rotate(-90) scale(0.1 -0.1)">
      <defs>
       <path id="DejaVuSans-42" d="M 1259 2228 
L 1259 519 
L 2272 519 
Q 2781 519 3026 730 
Q 3272 941 3272 1375 
Q 3272 1813 3026 2020 
Q 2781 2228 2272 2228 
L 1259 2228 
z
M 1259 4147 
L 1259 2741 
L 2194 2741 
Q 2656 2741 2882 2914 
Q 3109 3088 3109 3444 
Q 3109 3797 2882 3972 
Q 2656 4147 2194 4147 
L 1259 4147 
z
M 628 4666 
L 2241 4666 
Q 2963 4666 3353 4366 
Q 3744 4066 3744 3513 
Q 3744 3084 3544 2831 
Q 3344 2578 2956 2516 
Q 3422 2416 3680 2098 
Q 3938 1781 3938 1306 
Q 3938 681 3513 340 
Q 3088 0 2303 0 
L 628 0 
L 628 4666 
z
" transform="scale(0.015625)"/>
       <path id="DejaVuSans-69" d="M 603 3500 
L 1178 3500 
L 1178 0 
L 603 0 
L 603 3500 
z
M 603 4863 
L 1178 4863 
L 1178 4134 
L 603 4134 
L 603 4863 
z
" transform="scale(0.015625)"/>
       <path id="DejaVuSans-67" d="M 2906 1791 
Q 2906 2416 2648 2759 
Q 2391 3103 1925 3103 
Q 1463 3103 1205 2759 
Q 947 2416 947 1791 
Q 947 1169 1205 825 
Q 1463 481 1925 481 
Q 2391 481 2648 825 
Q 2906 1169 2906 1791 
z
M 3481 434 
Q 3481 -459 3084 -895 
Q 2688 -1331 1869 -1331 
Q 1566 -1331 1297 -1286 
Q 1028 -1241 775 -1147 
L 775 -588 
Q 1028 -725 1275 -790 
Q 1522 -856 1778 -856 
Q 2344 -856 2625 -561 
Q 2906 -266 2906 331 
L 2906 616 
Q 2728 306 2450 153 
Q 2172 0 1784 0 
Q 1141 0 747 490 
Q 353 981 353 1791 
Q 353 2603 747 3093 
Q 1141 3584 1784 3584 
Q 2172 3584 2450 3431 
Q 2728 3278 2906 2969 
L 2906 3500 
L 3481 3500 
L 3481 434 
z
" transform="scale(0.015625)"/>
       <path id="DejaVuSans-68" d="M 3513 2113 
L 3513 0 
L 2938 0 
L 2938 2094 
Q 2938 2591 2744 2837 
Q 2550 3084 2163 3084 
Q 1697 3084 1428 2787 
Q 1159 2491 1159 1978 
L 1159 0 
L 581 0 
L 581 4863 
L 1159 4863 
L 1159 2956 
Q 1366 3272 1645 3428 
Q 1925 3584 2291 3584 
Q 2894 3584 3203 3211 
Q 3513 2838 3513 2113 
z
" transform="scale(0.015625)"/>
       <path id="DejaVuSans-74" d="M 1172 4494 
L 1172 3500 
L 2356 3500 
L 2356 3053 
L 1172 3053 
L 1172 1153 
Q 1172 725 1289 603 
Q 1406 481 1766 481 
L 2356 481 
L 2356 0 
L 1766 0 
Q 1100 0 847 248 
Q 594 497 594 1153 
L 594 3053 
L 172 3053 
L 172 3500 
L 594 3500 
L 594 4494 
L 1172 4494 
z
" transform="scale(0.015625)"/>
       <path id="DejaVuSans-73" d="M 2834 3397 
L 2834 2853 
Q 2591 2978 2328 3040 
Q 2066 3103 1784 3103 
Q 1356 3103 1142 2972 
Q 928 2841 928 2578 
Q 928 2378 1081 2264 
Q 1234 2150 1697 2047 
L 1894 2003 
Q 2506 1872 2764 1633 
Q 3022 1394 3022 966 
Q 3022 478 2636 193 
Q 2250 -91 1575 -91 
Q 1294 -91 989 -36 
Q 684 19 347 128 
L 347 722 
Q 666 556 975 473 
Q 1284 391 1588 391 
Q 1994 391 2212 530 
Q 2431 669 2431 922 
Q 2431 1156 2273 1281 
Q 2116 1406 1581 1522 
L 1381 1569 
Q 847 1681 609 1914 
Q 372 2147 372 2553 
Q 372 3047 722 3315 
Q 1072 3584 1716 3584 
Q 2034 3584 2315 3537 
Q 2597 3491 2834 3397 
z
" transform="scale(0.015625)"/>
       <path id="DejaVuSans-54" d="M -19 4666 
L 3928 4666 
L 3928 4134 
L 2272 4134 
L 2272 0 
L 1638 0 
L 1638 4134 
L -19 4134 
L -19 4666 
z
" transform="scale(0.015625)"/>
       <path id="DejaVuSans-6d" d="M 3328 2828 
Q 3544 3216 3844 3400 
Q 4144 3584 4550 3584 
Q 5097 3584 5394 3201 
Q 5691 2819 5691 2113 
L 5691 0 
L 5113 0 
L 5113 2094 
Q 5113 2597 4934 2840 
Q 4756 3084 4391 3084 
Q 3944 3084 3684 2787 
Q 3425 2491 3425 1978 
L 3425 0 
L 2847 0 
L 2847 2094 
Q 2847 2600 2669 2842 
Q 2491 3084 2119 3084 
Q 1678 3084 1418 2786 
Q 1159 2488 1159 1978 
L 1159 0 
L 581 0 
L 581 3500 
L 1159 3500 
L 1159 2956 
Q 1356 3278 1631 3431 
Q 1906 3584 2284 3584 
Q 2666 3584 2933 3390 
Q 3200 3197 3328 2828 
z
" transform="scale(0.015625)"/>
       <path id="DejaVuSans-70" d="M 1159 525 
L 1159 -1331 
L 581 -1331 
L 581 3500 
L 1159 3500 
L 1159 2969 
Q 1341 3281 1617 3432 
Q 1894 3584 2278 3584 
Q 2916 3584 3314 3078 
Q 3713 2572 3713 1747 
Q 3713 922 3314 415 
Q 2916 -91 2278 -91 
Q 1894 -91 1617 61 
Q 1341 213 1159 525 
z
M 3116 1747 
Q 3116 2381 2855 2742 
Q 2594 3103 2138 3103 
Q 1681 3103 1420 2742 
Q 1159 2381 1159 1747 
Q 1159 1113 1420 752 
Q 1681 391 2138 391 
Q 2594 391 2855 752 
Q 3116 1113 3116 1747 
z
" transform="scale(0.015625)"/>
       <path id="DejaVuSans-61" d="M 2194 1759 
Q 1497 1759 1228 1600 
Q 959 1441 959 1056 
Q 959 750 1161 570 
Q 1363 391 1709 391 
Q 2188 391 2477 730 
Q 2766 1069 2766 1631 
L 2766 1759 
L 2194 1759 
z
M 3341 1997 
L 3341 0 
L 2766 0 
L 2766 531 
Q 2569 213 2275 61 
Q 1981 -91 1556 -91 
Q 1019 -91 701 211 
Q 384 513 384 1019 
Q 384 1609 779 1909 
Q 1175 2209 1959 2209 
L 2766 2209 
L 2766 2266 
Q 2766 2663 2505 2880 
Q 2244 3097 1772 3097 
Q 1472 3097 1187 3025 
Q 903 2953 641 2809 
L 641 3341 
Q 956 3463 1253 3523 
Q 1550 3584 1831 3584 
Q 2591 3584 2966 3190 
Q 3341 2797 3341 1997 
z
" transform="scale(0.015625)"/>
       <path id="DejaVuSans-Oblique-54" d="M 378 4666 
L 4325 4666 
L 4225 4134 
L 2559 4134 
L 1759 0 
L 1125 0 
L 1925 4134 
L 275 4134 
L 378 4666 
z
" transform="scale(0.015625)"/>
       <path id="DejaVuSans-4b" d="M 628 4666 
L 1259 4666 
L 1259 2694 
L 3353 4666 
L 4166 4666 
L 1850 2491 
L 4331 0 
L 3500 0 
L 1259 2247 
L 1259 0 
L 628 0 
L 628 4666 
z
" transform="scale(0.015625)"/>
      </defs>
      <use xlink:href="#DejaVuSans-42" transform="translate(0 0.015625)"/>
      <use xlink:href="#DejaVuSans-72" transform="translate(68.603516 0.015625)"/>
      <use xlink:href="#DejaVuSans-69" transform="translate(109.716797 0.015625)"/>
      <use xlink:href="#DejaVuSans-67" transform="translate(137.5 0.015625)"/>
      <use xlink:href="#DejaVuSans-68" transform="translate(200.976562 0.015625)"/>
      <use xlink:href="#DejaVuSans-74" transform="translate(264.355469 0.015625)"/>
      <use xlink:href="#DejaVuSans-6e" transform="translate(303.564453 0.015625)"/>
      <use xlink:href="#DejaVuSans-65" transform="translate(366.943359 0.015625)"/>
      <use xlink:href="#DejaVuSans-73" transform="translate(428.466797 0.015625)"/>
      <use xlink:href="#DejaVuSans-73" transform="translate(480.566406 0.015625)"/>
      <use xlink:href="#DejaVuSans-20" transform="translate(532.666016 0.015625)"/>
      <use xlink:href="#DejaVuSans-54" transform="translate(564.453125 0.015625)"/>
      <use xlink:href="#DejaVuSans-65" transform="translate(625.537109 0.015625)"/>
      <use xlink:href="#DejaVuSans-6d" transform="translate(687.060547 0.015625)"/>
      <use xlink:href="#DejaVuSans-70" transform="translate(784.472656 0.015625)"/>
      <use xlink:href="#DejaVuSans-65" transform="translate(847.949219 0.015625)"/>
      <use xlink:href="#DejaVuSans-72" transform="translate(909.472656 0.015625)"/>
      <use xlink:href="#DejaVuSans-61" transform="translate(950.585938 0.015625)"/>
      <use xlink:href="#DejaVuSans-74" transform="translate(1011.865234 0.015625)"/>
      <use xlink:href="#DejaVuSans-75" transform="translate(1051.074219 0.015625)"/>
      <use xlink:href="#DejaVuSans-72" transform="translate(1114.453125 0.015625)"/>
      <use xlink:href="#DejaVuSans-65" transform="translate(1155.566406 0.015625)"/>
      <use xlink:href="#DejaVuSans-20" transform="translate(1217.089844 0.015625)"/>
      <use xlink:href="#DejaVuSans-Oblique-54" transform="translate(1248.876953 0.015625)"/>
      <use xlink:href="#DejaVuSans-20" transform="translate(1309.960938 0.015625)"/>
      <use xlink:href="#DejaVuSans-28" transform="translate(1341.748047 0.015625)"/>
      <use xlink:href="#DejaVuSans-4b" transform="translate(1380.761719 0.015625)"/>
      <use xlink:href="#DejaVuSans-29" transform="translate(1446.337891 0.015625)"/>
     </g>
    </g>
   </g>
   <g id="line2d_14">
    <path d="M 43.803125 280.3078 
L 46.09001 280.3078 
L 46.09001 277.348613 
L 50.663781 277.348613 
L 50.663781 278.856716 
L 55.237551 278.856716 
L 55.237551 279.430735 
L 59.811322 279.430735 
L 59.811322 281.370423 
L 64.385092 281.370423 
L 64.385092 282.912772 
L 73.532633 282.810072 
L 73.532633 279.445216 
L 78.106404 279.445216 
L 78.106404 277.254737 
L 82.680174 277.254737 
L 82.680174 275.91788 
L 87.253945 275.91788 
L 87.253945 275.493298 
L 91.827715 275.493298 
L 91.827715 280.897139 
L 96.401486 280.897139 
L 96.401486 282.09719 
L 100.975256 282.09719 
L 100.975256 279.194729 
L 105.549027 279.194729 
L 105.549027 276.970043 
L 110.122797 276.970043 
L 110.122797 276.008713 
L 114.696568 276.008713 
L 114.696568 278.766013 
L 119.270338 278.766013 
L 119.270338 280.554636 
L 123.844109 280.554636 
L 123.844109 279.800384 
L 128.417879 279.800384 
L 128.417879 279.317587 
L 132.99165 279.317587 
L 132.99165 278.644459 
L 137.56542 278.644459 
L 137.56542 278.141452 
L 142.139191 278.141452 
L 142.139191 279.530538 
L 146.712961 279.530538 
L 146.712961 278.515166 
L 151.286732 278.515166 
L 151.286732 277.241795 
L 155.860502 277.241795 
L 155.860502 269.646135 
L 160.434273 269.646135 
L 160.434273 256.162768 
L 165.008043 256.162768 
L 165.008043 250.029266 
L 169.581814 250.029266 
L 169.581814 269.731985 
L 174.155584 269.731985 
L 174.155584 278.167709 
L 178.729355 278.167709 
L 178.729355 281.630579 
L 187.876895 281.684973 
L 187.876895 279.809726 
L 192.450666 279.809726 
L 192.450666 279.545948 
L 197.024436 279.545948 
L 197.024436 277.680329 
L 201.598207 277.680329 
L 201.598207 273.919423 
L 206.171977 273.919423 
L 206.171977 273.393177 
L 215.319518 273.435276 
L 215.319518 279.368119 
L 219.893289 279.368119 
L 219.893289 278.379434 
L 224.467059 278.379434 
L 224.467059 268.557208 
L 229.04083 268.557208 
L 229.04083 262.979596 
L 233.6146 262.979596 
L 233.6146 271.153583 
L 238.188371 271.153583 
L 238.188371 266.857608 
L 242.762141 266.857608 
L 242.762141 272.068783 
L 247.335912 272.068783 
L 247.335912 279.066014 
L 251.909682 279.066014 
L 251.909682 274.177104 
L 256.483453 274.177104 
L 256.483453 276.476033 
L 261.057223 276.476033 
L 261.057223 276.94967 
L 270.204764 276.922135 
L 270.204764 278.13619 
L 274.778535 278.13619 
L 274.778535 281.611651 
L 279.352305 281.611651 
L 279.352305 276.615311 
L 283.926076 276.615311 
L 283.926076 272.865621 
L 288.499846 272.865621 
L 288.499846 262.598745 
L 293.073617 262.598745 
L 293.073617 266.516076 
L 297.647387 266.516076 
L 297.647387 277.470994 
L 302.221158 277.470994 
L 302.221158 280.201051 
L 306.794928 280.201051 
L 306.794928 282.129095 
L 311.368699 282.129095 
L 311.368699 282.306846 
L 315.942469 282.306846 
L 315.942469 279.874856 
L 320.51624 279.874856 
L 320.51624 281.244042 
L 325.09001 281.244042 
L 325.09001 277.366793 
L 329.663781 277.366793 
L 329.663781 278.854324 
L 334.237551 278.854324 
L 334.237551 281.816876 
L 338.811322 281.816876 
L 338.811322 284.081583 
L 343.385092 284.081583 
L 343.385092 279.351004 
L 347.958863 279.351004 
L 347.958863 258.023978 
L 352.532633 258.023978 
L 352.532633 202.947086 
L 357.106404 202.947086 
L 357.106404 204.899131 
L 361.680174 204.899131 
L 361.680174 259.725166 
L 366.253945 259.725166 
L 366.253945 268.637437 
L 370.827715 268.637437 
L 370.827715 254.035683 
L 375.401486 254.035683 
L 375.401486 252.084211 
L 379.975256 252.084211 
L 379.975256 275.922486 
L 384.549027 275.922486 
L 384.549027 278.960457 
L 389.122797 278.960457 
L 389.122797 276.942645 
L 393.696568 276.942645 
L 393.696568 257.398106 
L 398.270338 257.398106 
L 398.270338 195.280307 
L 402.844109 195.280307 
L 402.844109 200.416175 
L 407.417879 200.416175 
L 407.417879 263.362272 
L 411.99165 263.362272 
L 411.99165 276.297197 
L 416.56542 276.297197 
L 416.56542 277.825471 
L 421.139191 277.825471 
L 421.139191 246.910664 
L 425.712961 246.910664 
L 425.712961 144.009819 
L 430.286732 144.009819 
L 430.286732 115.345713 
L 434.860502 115.345713 
L 434.860502 95.796797 
L 439.434273 95.796797 
L 439.434273 124.100517 
L 444.008043 124.100517 
L 444.008043 246.074099 
L 448.581814 246.074099 
L 448.581814 275.65087 
L 453.155584 275.65087 
L 453.155584 279.380075 
L 457.729355 279.380075 
L 457.729355 279.753771 
L 462.303125 279.753771 
L 462.303125 273.387421 
L 466.876895 273.387421 
L 466.876895 261.496228 
L 471.450666 261.496228 
L 471.450666 256.171013 
L 476.024436 256.171013 
L 476.024436 268.579274 
L 480.598207 268.579274 
L 480.598207 274.099023 
L 485.171977 274.099023 
L 485.171977 277.529627 
L 489.745748 277.529627 
L 489.745748 273.133319 
L 494.319518 273.133319 
L 494.319518 266.623796 
L 498.893289 266.623796 
L 498.893289 252.085113 
L 503.467059 252.085113 
L 503.467059 256.3912 
L 508.04083 256.3912 
L 508.04083 265.540966 
L 512.6146 265.540966 
L 512.6146 275.712479 
L 517.188371 275.712479 
L 517.188371 278.941014 
L 521.762141 278.941014 
L 521.762141 276.15965 
L 526.335912 276.15965 
L 526.335912 277.732322 
L 530.909682 277.732322 
L 530.909682 282.147762 
L 535.483453 282.147762 
L 535.483453 283.477013 
L 540.057223 283.477013 
L 540.057223 280.73441 
L 544.630994 280.73441 
L 544.630994 280.327814 
L 549.204764 280.327814 
L 549.204764 278.447984 
L 553.778535 278.447984 
L 553.778535 276.69027 
L 558.352305 276.69027 
L 558.352305 278.356182 
L 562.926076 278.356182 
L 562.926076 278.599149 
L 567.499846 278.599149 
L 567.499846 279.084118 
L 572.073617 279.084118 
L 572.073617 278.719197 
L 576.647387 278.719197 
L 576.647387 282.05531 
L 581.221158 282.05531 
L 581.221158 280.325826 
L 585.794928 280.325826 
L 585.794928 277.987125 
L 590.368699 277.987125 
L 590.368699 279.658974 
L 594.942469 279.658974 
L 594.942469 280.532631 
L 599.51624 280.532631 
L 599.51624 276.74419 
L 601.803125 276.74419 
L 601.803125 276.74419 
" clip-path="url(#p1452dcd282)" style="fill: none; stroke: #000000; stroke-width: 0.5; stroke-linecap: square"/>
   </g>
   <g id="line2d_15">
    <path d="M 43.803125 279.257283 
L 48.376895 279.257283 
L 52.950666 279.257283 
L 57.524436 279.257283 
L 62.098207 279.257283 
L 66.671977 279.257283 
L 71.245748 279.257283 
L 75.819518 279.257283 
L 80.393289 279.257283 
L 84.967059 279.257283 
L 89.54083 279.257283 
L 94.1146 279.257283 
L 98.688371 279.257283 
L 103.262141 279.257283 
L 107.835912 279.257283 
L 112.409682 279.257283 
L 116.983453 279.257283 
L 121.557223 279.257283 
L 126.130994 279.257283 
L 130.704764 279.257283 
L 135.278535 279.257283 
L 139.852305 279.257283 
L 144.426076 279.257283 
L 148.999846 279.257283 
L 153.573617 279.257283 
L 158.147387 279.257283 
L 162.721158 279.257283 
L 167.294928 279.257283 
L 171.868699 279.257283 
L 176.442469 279.257283 
L 181.01624 279.257283 
L 185.59001 279.257283 
L 190.163781 279.257283 
L 194.737551 279.257283 
L 199.311322 279.257283 
L 203.885092 279.257283 
L 208.458863 279.257283 
L 213.032633 279.257283 
L 217.606404 279.257283 
L 222.180174 279.257283 
L 226.753945 279.257283 
L 231.327715 279.257283 
L 235.901486 279.257283 
L 240.475256 279.257283 
L 245.049027 279.257283 
L 249.622797 279.257283 
L 254.196568 279.257283 
L 258.770338 279.257283 
L 263.344109 279.257283 
L 267.917879 279.257283 
L 272.49165 279.257282 
L 277.06542 279.256363 
L 281.639191 279.090803 
L 286.212961 274.564853 
L 290.786732 258.649913 
L 295.360502 265.156737 
L 299.934273 277.75401 
L 304.508043 279.232313 
L 309.081814 279.257219 
L 313.655584 279.257283 
L 318.229355 279.257283 
L 322.803125 279.257283 
L 327.376895 279.257283 
L 331.950666 279.257283 
L 336.524436 279.257014 
L 341.098207 279.216206 
L 345.671977 277.479161 
L 350.245748 257.451578 
L 354.819518 203.499697 
L 359.393289 204.69324 
L 363.967059 258.466056 
L 368.54083 277.614886 
L 373.1146 279.220528 
L 377.688371 279.25705 
L 382.262141 279.257225 
L 386.835912 279.239499 
L 391.409682 277.984271 
L 395.983453 257.860721 
L 400.557223 194.812538 
L 405.130994 201.001119 
L 409.704764 262.22854 
L 414.278535 278.370719 
L 418.852305 277.594008 
L 423.426076 246.648386 
L 427.999846 147.26239 
L 432.573617 119.004216 
L 437.147387 90.566401 
L 441.721158 130.65559 
L 446.294928 238.024219 
L 450.868699 275.484956 
L 455.442469 279.143767 
L 460.01624 279.25616 
L 464.59001 279.25728 
L 469.163781 279.257283 
L 473.737551 279.257283 
L 478.311322 279.257283 
L 482.885092 279.257283 
L 487.458863 279.257283 
L 492.032633 279.257283 
L 496.606404 279.257283 
L 501.180174 279.257283 
L 505.753945 279.257283 
L 510.327715 279.257283 
L 514.901486 279.257283 
L 519.475256 279.257283 
L 524.049027 279.257283 
L 528.622797 279.257283 
L 533.196568 279.257283 
L 537.770338 279.257283 
L 542.344109 279.257283 
L 546.917879 279.257283 
L 551.49165 279.257283 
L 556.06542 279.257283 
L 560.639191 279.257283 
L 565.212961 279.257283 
L 569.786732 279.257283 
L 574.360502 279.257283 
L 578.934273 279.257283 
L 583.508043 279.257283 
L 588.081814 279.257283 
L 592.655584 279.257283 
L 597.229355 279.257283 
L 601.803125 279.257283 
" clip-path="url(#p1452dcd282)" style="fill: none; stroke: #ff0000; stroke-width: 0.5; stroke-linecap: square"/>
   </g>
   <g id="line2d_16">
    <path d="M 0 0 
" clip-path="url(#p1452dcd282)" style="fill: none; stroke: #000000; stroke-width: 0.5; stroke-linecap: square"/>
   </g>
   <g id="line2d_17">
    <path clip-path="url(#p1452dcd282)" style="fill: none; stroke-dasharray: 5.55,2.4; stroke-dashoffset: 0; stroke: #000000; stroke-opacity: 0.5; stroke-width: 1.5"/>
   </g>
   <g id="LineCollection_1">
    <path d="M 438.745347 279.257283 
L 438.745347 64.88118 
" clip-path="url(#p1452dcd282)" style="fill: none; stroke: #008000"/>
   </g>
   <g id="LineCollection_2">
    <path d="M 429.470092 279.257283 
L 429.470092 118.302445 
" clip-path="url(#p1452dcd282)" style="fill: none; stroke: #008000"/>
   </g>
   <g id="LineCollection_3">
    <path d="M 402.603864 279.257283 
L 402.603864 154.803555 
" clip-path="url(#p1452dcd282)" style="fill: none; stroke: #008000"/>
   </g>
   <g id="LineCollection_4">
    <path d="M 357.048816 279.257283 
L 357.048816 164.429933 
" clip-path="url(#p1452dcd282)" style="fill: none; stroke: #008000"/>
   </g>
   <g id="LineCollection_5">
    <path d="M 292.140144 279.257283 
L 292.140144 230.076638 
" clip-path="url(#p1452dcd282)" style="fill: none; stroke: #008000"/>
   </g>
   <g id="patch_3">
    <path d="M 43.803125 288.199219 
L 43.803125 10.999219 
" style="fill: none; stroke: #000000; stroke-width: 0.8; stroke-linejoin: miter; stroke-linecap: square"/>
   </g>
   <g id="patch_4">
    <path d="M 601.803125 288.199219 
L 601.803125 10.999219 
" style="fill: none; stroke: #000000; stroke-width: 0.8; stroke-linejoin: miter; stroke-linecap: square"/>
   </g>
   <g id="patch_5">
    <path d="M 43.803125 288.199219 
L 601.803125 288.199219 
" style="fill: none; stroke: #000000; stroke-width: 0.8; stroke-linejoin: miter; stroke-linecap: square"/>
   </g>
   <g id="patch_6">
    <path d="M 43.803125 10.999219 
L 601.803125 10.999219 
" style="fill: none; stroke: #000000; stroke-width: 0.8; stroke-linejoin: miter; stroke-linecap: square"/>
   </g>
   <g id="text_16">
    <!-- 6(0)-5(0) -->
    <g style="fill: #008000" transform="translate(441.660429 58.018932) rotate(-90) scale(0.1 -0.1)">
     <defs>
      <path id="DejaVuSans-2d" d="M 313 2009 
L 1997 2009 
L 1997 1497 
L 313 1497 
L 313 2009 
z
" transform="scale(0.015625)"/>
     </defs>
     <use xlink:href="#DejaVuSans-36"/>
     <use xlink:href="#DejaVuSans-28" x="63.623047"/>
     <use xlink:href="#DejaVuSans-30" x="102.636719"/>
     <use xlink:href="#DejaVuSans-29" x="166.259766"/>
     <use xlink:href="#DejaVuSans-2d" x="205.273438"/>
     <use xlink:href="#DejaVuSans-35" x="241.357422"/>
     <use xlink:href="#DejaVuSans-28" x="304.980469"/>
     <use xlink:href="#DejaVuSans-30" x="343.994141"/>
     <use xlink:href="#DejaVuSans-29" x="407.617188"/>
    </g>
   </g>
   <g id="text_17">
    <!-- 6(1)-5(1) -->
    <g style="fill: #008000" transform="translate(432.385174 111.440197) rotate(-90) scale(0.1 -0.1)">
     <use xlink:href="#DejaVuSans-36"/>
     <use xlink:href="#DejaVuSans-28" x="63.623047"/>
     <use xlink:href="#DejaVuSans-31" x="102.636719"/>
     <use xlink:href="#DejaVuSans-29" x="166.259766"/>
     <use xlink:href="#DejaVuSans-2d" x="205.273438"/>
     <use xlink:href="#DejaVuSans-35" x="241.357422"/>
     <use xlink:href="#DejaVuSans-28" x="304.980469"/>
     <use xlink:href="#DejaVuSans-31" x="343.994141"/>
     <use xlink:href="#DejaVuSans-29" x="407.617188"/>
    </g>
   </g>
   <g id="text_18">
    <!-- 6(2)-5(2) -->
    <g style="fill: #008000" transform="translate(405.518946 147.941307) rotate(-90) scale(0.1 -0.1)">
     <use xlink:href="#DejaVuSans-36"/>
     <use xlink:href="#DejaVuSans-28" x="63.623047"/>
     <use xlink:href="#DejaVuSans-32" x="102.636719"/>
     <use xlink:href="#DejaVuSans-29" x="166.259766"/>
     <use xlink:href="#DejaVuSans-2d" x="205.273438"/>
     <use xlink:href="#DejaVuSans-35" x="241.357422"/>
     <use xlink:href="#DejaVuSans-28" x="304.980469"/>
     <use xlink:href="#DejaVuSans-32" x="343.994141"/>
     <use xlink:href="#DejaVuSans-29" x="407.617188"/>
    </g>
   </g>
   <g id="text_19">
    <!-- 6(3)-5(3) -->
    <g style="fill: #008000" transform="translate(359.963898 157.567685) rotate(-90) scale(0.1 -0.1)">
     <use xlink:href="#DejaVuSans-36"/>
     <use xlink:href="#DejaVuSans-28" x="63.623047"/>
     <use xlink:href="#DejaVuSans-33" x="102.636719"/>
     <use xlink:href="#DejaVuSans-29" x="166.259766"/>
     <use xlink:href="#DejaVuSans-2d" x="205.273438"/>
     <use xlink:href="#DejaVuSans-35" x="241.357422"/>
     <use xlink:href="#DejaVuSans-28" x="304.980469"/>
     <use xlink:href="#DejaVuSans-33" x="343.994141"/>
     <use xlink:href="#DejaVuSans-29" x="407.617188"/>
    </g>
   </g>
   <g id="text_20">
    <!-- 6(4)-5(4) -->
    <g style="fill: #008000" transform="translate(295.055226 223.21439) rotate(-90) scale(0.1 -0.1)">
     <use xlink:href="#DejaVuSans-36"/>
     <use xlink:href="#DejaVuSans-28" x="63.623047"/>
     <use xlink:href="#DejaVuSans-34" x="102.636719"/>
     <use xlink:href="#DejaVuSans-29" x="166.259766"/>
     <use xlink:href="#DejaVuSans-2d" x="205.273438"/>
     <use xlink:href="#DejaVuSans-35" x="241.357422"/>
     <use xlink:href="#DejaVuSans-28" x="304.980469"/>
     <use xlink:href="#DejaVuSans-34" x="343.994141"/>
     <use xlink:href="#DejaVuSans-29" x="407.617188"/>
    </g>
   </g>
  </g>
 </g>
 <defs>
  <clipPath id="p1452dcd282">
   <rect x="43.803125" y="10.999219" width="558" height="277.2"/>
  </clipPath>
 </defs>
</svg>
