<?xml version="1.0" encoding="utf-8" standalone="no"?>
<!DOCTYPE svg PUBLIC "-//W3C//DTD SVG 1.1//EN"
  "http://www.w3.org/Graphics/SVG/1.1/DTD/svg11.dtd">
<svg xmlns:xlink="http://www.w3.org/1999/xlink" width="432pt" height="216pt" viewBox="0 0 432 216" xmlns="http://www.w3.org/2000/svg" version="1.1">
 <metadata>
  <rdf:RDF xmlns:dc="http://purl.org/dc/elements/1.1/" xmlns:cc="http://creativecommons.org/ns#" xmlns:rdf="http://www.w3.org/1999/02/22-rdf-syntax-ns#">
   <cc:Work>
    <dc:type rdf:resource="http://purl.org/dc/dcmitype/StillImage"/>
    <dc:date>2026-05-26T23:27:17.656126</dc:date>
    <dc:format>image/svg+xml</dc:format>
    <dc:creator>
     <cc:Agent>
      <dc:title>Matplotlib v3.6.0, https://matplotlib.org/</dc:title>
     </cc:Agent>
    </dc:creator>
   </cc:Work>
  </rdf:RDF>
 </metadata>
 <defs>
  <style type="text/css">*{stroke-linejoin: round; stroke-linecap: butt}</style>
 </defs>
 <g id="figure_1">
  <g id="patch_1">
   <path d="M 0 216 
L 432 216 
L 432 0 
L 0 0 
z
" style="fill: #ffffff"/>
  </g>
  <g id="axes_1">
   <g id="patch_2">
    <path d="M 44.797839 172.419855 
L 420.12 172.419855 
L 420.12 14.425173 
L 44.797839 14.425173 
z
" style="fill: #ffffff"/>
   </g>
   <g id="matplotlib.axis_1">
    <g id="xtick_1">
     <g id="line2d_1">
      <defs>
       <path id="m1824b8bc49" d="M 0 0 
L 0 3.5 
" style="stroke: #000000; stroke-width: 0.8"/>
      </defs>
      <g>
       <use xlink:href="#m1824b8bc49" x="106.384804" y="172.419855" style="stroke: #000000; stroke-width: 0.8"/>
      </g>
     </g>
     <g id="text_1">
      <!-- $\mathdefault{2000}$ -->
      <g transform="translate(95.42587 187.030201) scale(0.11 -0.11)">
       <defs>
        <path id="CMR17-32" d="M 2669 989 
L 2554 989 
C 2490 536 2438 459 2413 420 
C 2381 369 1920 369 1830 369 
L 602 369 
C 832 619 1280 1072 1824 1597 
C 2214 1967 2669 2402 2669 3035 
C 2669 3790 2067 4224 1395 4224 
C 691 4224 262 3604 262 3030 
C 262 2780 448 2748 525 2748 
C 589 2748 781 2787 781 3010 
C 781 3207 614 3264 525 3264 
C 486 3264 448 3258 422 3245 
C 544 3790 915 4058 1306 4058 
C 1862 4058 2227 3617 2227 3035 
C 2227 2479 1901 2000 1536 1584 
L 262 146 
L 262 0 
L 2515 0 
L 2669 989 
z
" transform="scale(0.015625)"/>
        <path id="CMR17-30" d="M 2688 2025 
C 2688 2416 2682 3080 2413 3591 
C 2176 4039 1798 4198 1466 4198 
C 1158 4198 768 4058 525 3597 
C 269 3118 243 2524 243 2025 
C 243 1661 250 1106 448 619 
C 723 -39 1216 -128 1466 -128 
C 1760 -128 2208 -7 2470 600 
C 2662 1042 2688 1559 2688 2025 
z
M 1466 -26 
C 1056 -26 813 325 723 812 
C 653 1188 653 1738 653 2096 
C 653 2588 653 2997 736 3387 
C 858 3929 1216 4096 1466 4096 
C 1728 4096 2067 3923 2189 3400 
C 2272 3036 2278 2607 2278 2096 
C 2278 1680 2278 1169 2202 792 
C 2067 95 1690 -26 1466 -26 
z
" transform="scale(0.015625)"/>
       </defs>
       <use xlink:href="#CMR17-32" transform="scale(0.996264)"/>
       <use xlink:href="#CMR17-30" transform="translate(45.690477 0) scale(0.996264)"/>
       <use xlink:href="#CMR17-30" transform="translate(91.380954 0) scale(0.996264)"/>
       <use xlink:href="#CMR17-30" transform="translate(137.071431 0) scale(0.996264)"/>
      </g>
     </g>
    </g>
    <g id="xtick_2">
     <g id="line2d_2">
      <g>
       <use xlink:href="#m1824b8bc49" x="180.59625" y="172.419855" style="stroke: #000000; stroke-width: 0.8"/>
      </g>
     </g>
     <g id="text_2">
      <!-- $\mathdefault{4000}$ -->
      <g transform="translate(169.637316 187.030201) scale(0.11 -0.11)">
       <defs>
        <path id="CMR17-34" d="M 2150 4122 
C 2150 4256 2144 4256 2029 4256 
L 128 1254 
L 128 1088 
L 1779 1088 
L 1779 457 
C 1779 224 1766 160 1318 160 
L 1197 160 
L 1197 0 
C 1402 0 1747 0 1965 0 
C 2182 0 2528 0 2733 0 
L 2733 160 
L 2611 160 
C 2163 160 2150 224 2150 457 
L 2150 1088 
L 2803 1088 
L 2803 1254 
L 2150 1254 
L 2150 4122 
z
M 1798 3703 
L 1798 1254 
L 256 1254 
L 1798 3703 
z
" transform="scale(0.015625)"/>
       </defs>
       <use xlink:href="#CMR17-34" transform="scale(0.996264)"/>
       <use xlink:href="#CMR17-30" transform="translate(45.690477 0) scale(0.996264)"/>
       <use xlink:href="#CMR17-30" transform="translate(91.380954 0) scale(0.996264)"/>
       <use xlink:href="#CMR17-30" transform="translate(137.071431 0) scale(0.996264)"/>
      </g>
     </g>
    </g>
    <g id="xtick_3">
     <g id="line2d_3">
      <g>
       <use xlink:href="#m1824b8bc49" x="254.807696" y="172.419855" style="stroke: #000000; stroke-width: 0.8"/>
      </g>
     </g>
     <g id="text_3">
      <!-- $\mathdefault{6000}$ -->
      <g transform="translate(243.848762 187.030201) scale(0.11 -0.11)">
       <defs>
        <path id="CMR17-36" d="M 678 2176 
C 678 3690 1395 4032 1811 4032 
C 1946 4032 2272 4009 2400 3776 
C 2298 3776 2106 3776 2106 3553 
C 2106 3381 2246 3323 2336 3323 
C 2394 3323 2566 3348 2566 3560 
C 2566 3954 2246 4179 1805 4179 
C 1043 4179 243 3390 243 1984 
C 243 253 966 -128 1478 -128 
C 2099 -128 2688 427 2688 1283 
C 2688 2081 2170 2662 1517 2662 
C 1126 2662 838 2407 678 1960 
L 678 2176 
z
M 1478 25 
C 691 25 691 1200 691 1436 
C 691 1896 909 2560 1504 2560 
C 1613 2560 1926 2560 2138 2120 
C 2253 1870 2253 1609 2253 1289 
C 2253 944 2253 690 2118 434 
C 1978 171 1773 25 1478 25 
z
" transform="scale(0.015625)"/>
       </defs>
       <use xlink:href="#CMR17-36" transform="scale(0.996264)"/>
       <use xlink:href="#CMR17-30" transform="translate(45.690477 0) scale(0.996264)"/>
       <use xlink:href="#CMR17-30" transform="translate(91.380954 0) scale(0.996264)"/>
       <use xlink:href="#CMR17-30" transform="translate(137.071431 0) scale(0.996264)"/>
      </g>
     </g>
    </g>
    <g id="xtick_4">
     <g id="line2d_4">
      <g>
       <use xlink:href="#m1824b8bc49" x="329.019142" y="172.419855" style="stroke: #000000; stroke-width: 0.8"/>
      </g>
     </g>
     <g id="text_4">
      <!-- $\mathdefault{8000}$ -->
      <g transform="translate(318.060208 187.030201) scale(0.11 -0.11)">
       <defs>
        <path id="CMR17-38" d="M 1741 2264 
C 2144 2467 2554 2773 2554 3263 
C 2554 3841 1990 4179 1472 4179 
C 890 4179 378 3759 378 3180 
C 378 3021 416 2747 666 2505 
C 730 2442 998 2251 1171 2130 
C 883 1983 211 1634 211 934 
C 211 279 838 -128 1459 -128 
C 2144 -128 2720 362 2720 1010 
C 2720 1590 2330 1857 2074 2029 
L 1741 2264 
z
M 902 2822 
C 851 2854 595 3051 595 3351 
C 595 3739 998 4032 1459 4032 
C 1965 4032 2336 3676 2336 3262 
C 2336 2669 1670 2331 1638 2331 
C 1632 2331 1626 2331 1574 2370 
L 902 2822 
z
M 2080 1519 
C 2176 1449 2483 1240 2483 851 
C 2483 381 2010 25 1472 25 
C 890 25 448 438 448 940 
C 448 1443 838 1862 1280 2060 
L 2080 1519 
z
" transform="scale(0.015625)"/>
       </defs>
       <use xlink:href="#CMR17-38" transform="scale(0.996264)"/>
       <use xlink:href="#CMR17-30" transform="translate(45.690477 0) scale(0.996264)"/>
       <use xlink:href="#CMR17-30" transform="translate(91.380954 0) scale(0.996264)"/>
       <use xlink:href="#CMR17-30" transform="translate(137.071431 0) scale(0.996264)"/>
      </g>
     </g>
    </g>
    <g id="xtick_5">
     <g id="line2d_5">
      <g>
       <use xlink:href="#m1824b8bc49" x="403.230588" y="172.419855" style="stroke: #000000; stroke-width: 0.8"/>
      </g>
     </g>
     <g id="text_5">
      <!-- $\mathdefault{10000}$ -->
      <g transform="translate(389.53192 187.030201) scale(0.11 -0.11)">
       <defs>
        <path id="CMR17-31" d="M 1702 4058 
C 1702 4192 1696 4192 1606 4192 
C 1357 3916 979 3827 621 3827 
C 602 3827 570 3827 563 3808 
C 557 3795 557 3782 557 3648 
C 755 3648 1088 3686 1344 3839 
L 1344 461 
C 1344 236 1331 160 781 160 
L 589 160 
L 589 0 
C 896 0 1216 0 1523 0 
C 1830 0 2150 0 2458 0 
L 2458 160 
L 2266 160 
C 1715 160 1702 230 1702 458 
L 1702 4058 
z
" transform="scale(0.015625)"/>
       </defs>
       <use xlink:href="#CMR17-31" transform="scale(0.996264)"/>
       <use xlink:href="#CMR17-30" transform="translate(45.690477 0) scale(0.996264)"/>
       <use xlink:href="#CMR17-30" transform="translate(91.380954 0) scale(0.996264)"/>
       <use xlink:href="#CMR17-30" transform="translate(137.071431 0) scale(0.996264)"/>
       <use xlink:href="#CMR17-30" transform="translate(182.761908 0) scale(0.996264)"/>
      </g>
     </g>
    </g>
    <g id="text_6">
     <!-- Frequency (Hz) -->
     <g transform="translate(196.941323 201.380274) scale(0.11 -0.11)">
      <defs>
       <path id="CMSS17-46" d="M 2918 1984 
L 2918 2373 
L 1101 2373 
L 1101 3968 
L 1882 3968 
C 1958 3968 2035 3968 2112 3968 
L 3168 3968 
L 3168 4375 
L 563 4375 
L 563 -32 
L 1101 -32 
L 1101 1984 
L 2918 1984 
z
" transform="scale(0.015625)"/>
       <path id="CMSS17-72" d="M 954 1363 
C 954 1965 1395 2368 1958 2368 
L 1958 2789 
C 1549 2789 1165 2585 934 2253 
L 934 2758 
L 480 2758 
L 480 0 
L 954 0 
L 954 1363 
z
" transform="scale(0.015625)"/>
       <path id="CMSS17-65" d="M 2502 1377 
C 2502 1590 2490 2003 2285 2345 
C 2061 2713 1696 2816 1421 2816 
C 755 2816 192 2188 192 1375 
C 192 582 774 -64 1510 -64 
C 1798 -64 2150 19 2470 248 
C 2470 274 2458 414 2451 420 
C 2451 433 2432 630 2432 656 
C 2125 407 1773 325 1517 325 
C 1107 325 666 667 646 1377 
L 2502 1377 
z
M 698 1728 
C 781 2084 1062 2421 1421 2421 
C 1517 2421 1965 2421 2080 1728 
L 698 1728 
z
" transform="scale(0.015625)"/>
       <path id="CMSS17-71" d="M 2611 2816 
L 2138 2816 
L 2138 2428 
C 2112 2460 1818 2816 1318 2816 
C 736 2816 211 2228 211 1399 
C 211 633 653 -5 1229 -5 
C 1498 -5 1837 91 2125 365 
L 2125 -1216 
L 2611 -1216 
L 2611 2816 
z
M 2138 914 
C 2138 832 2138 718 1939 554 
C 1888 510 1747 384 1504 384 
C 1050 384 698 850 698 1399 
C 698 2011 1126 2415 1562 2415 
C 1926 2415 2138 2061 2138 1797 
L 2138 914 
z
" transform="scale(0.015625)"/>
       <path id="CMSS17-75" d="M 2618 2739 
L 2131 2739 
L 2131 972 
C 2131 498 1786 306 1421 306 
C 998 306 960 447 960 709 
L 960 2739 
L 474 2739 
L 474 678 
C 474 179 646 -64 1088 -64 
C 1306 -64 1798 -13 2144 306 
L 2144 0 
L 2618 0 
L 2618 2739 
z
" transform="scale(0.015625)"/>
       <path id="CMSS17-6e" d="M 2618 1877 
C 2618 2283 2522 2816 1798 2816 
C 1389 2816 1120 2606 941 2389 
L 941 2758 
L 474 2758 
L 474 0 
L 960 0 
L 960 1559 
C 960 1964 1114 2428 1549 2428 
C 2112 2428 2131 2048 2131 1829 
L 2131 0 
L 2618 0 
L 2618 1877 
z
" transform="scale(0.015625)"/>
       <path id="CMSS17-63" d="M 2464 2541 
C 2464 2585 2170 2714 2093 2739 
C 1882 2816 1613 2816 1542 2816 
C 710 2816 211 2093 211 1363 
C 211 595 768 -64 1517 -64 
C 1946 -64 2253 76 2502 242 
L 2464 664 
C 2189 453 1869 337 1523 337 
C 1024 337 698 774 698 1369 
C 698 1831 909 2414 1549 2414 
C 1901 2414 2099 2343 2394 2145 
L 2464 2541 
z
" transform="scale(0.015625)"/>
       <path id="CMSS17-79" d="M 2675 2752 
L 2176 2752 
C 1632 1294 1446 702 1434 383 
L 1427 383 
C 1408 696 1126 1460 902 2007 
L 602 2752 
L 83 2752 
L 1216 13 
C 1146 -178 1043 -465 1011 -529 
C 870 -885 774 -885 672 -885 
C 646 -885 442 -885 211 -809 
L 250 -1229 
C 410 -1261 570 -1280 685 -1280 
C 845 -1280 1165 -1280 1459 -497 
L 2675 2752 
z
" transform="scale(0.015625)"/>
       <path id="CMSS17-28" d="M 1613 4768 
C 1267 4417 474 3601 474 1588 
C 474 -433 1267 -1243 1613 -1600 
L 2003 -1600 
C 1216 -784 960 357 960 1581 
C 960 2798 1203 3946 2003 4768 
L 1613 4768 
z
" transform="scale(0.015625)"/>
       <path id="CMSS17-48" d="M 3674 4416 
L 3136 4416 
L 3136 2501 
L 1101 2501 
L 1101 4416 
L 563 4416 
L 563 0 
L 1101 0 
L 1101 2112 
L 3136 2112 
L 3136 0 
L 3674 0 
L 3674 4416 
z
" transform="scale(0.015625)"/>
       <path id="CMSS17-7a" d="M 2400 2502 
L 2400 2750 
L 250 2750 
L 250 2368 
L 1069 2368 
C 1146 2368 1222 2368 1299 2368 
L 1747 2368 
L 166 261 
L 166 0 
L 2419 0 
L 2419 395 
L 1549 395 
C 1472 395 1395 395 1318 395 
L 826 395 
L 2400 2502 
z
" transform="scale(0.015625)"/>
       <path id="CMSS17-29" d="M 723 -1600 
C 1069 -1249 1862 -433 1862 1581 
C 1862 3601 1069 4411 723 4768 
L 333 4768 
C 1120 3952 1376 2811 1376 1588 
C 1376 370 1133 -778 333 -1600 
L 723 -1600 
z
" transform="scale(0.015625)"/>
      </defs>
      <use xlink:href="#CMSS17-46" transform="scale(0.996264)"/>
      <use xlink:href="#CMSS17-72" transform="translate(50.687105 0) scale(0.996264)"/>
      <use xlink:href="#CMSS17-65" transform="translate(82.596878 0) scale(0.996264)"/>
      <use xlink:href="#CMSS17-71" transform="translate(124.2357 0) scale(0.996264)"/>
      <use xlink:href="#CMSS17-75" transform="translate(172.440643 0) scale(0.996264)"/>
      <use xlink:href="#CMSS17-65" transform="translate(220.645586 0) scale(0.996264)"/>
      <use xlink:href="#CMSS17-6e" transform="translate(262.284408 0) scale(0.996264)"/>
      <use xlink:href="#CMSS17-63" transform="translate(310.489351 0) scale(0.996264)"/>
      <use xlink:href="#CMSS17-79" transform="translate(352.128174 0) scale(0.996264)"/>
      <use xlink:href="#CMSS17-28" transform="translate(426.357428 0) scale(0.996264)"/>
      <use xlink:href="#CMSS17-48" transform="translate(462.791342 0) scale(0.996264)"/>
      <use xlink:href="#CMSS17-7a" transform="translate(528.852861 0) scale(0.996264)"/>
      <use xlink:href="#CMSS17-29" transform="translate(569.530733 0) scale(0.996264)"/>
     </g>
    </g>
   </g>
   <g id="matplotlib.axis_2">
    <g id="ytick_1">
     <g id="line2d_6">
      <defs>
       <path id="mb95f1ba0f2" d="M 0 0 
L -3.5 0 
" style="stroke: #000000; stroke-width: 0.8"/>
      </defs>
      <g>
       <use xlink:href="#mb95f1ba0f2" x="44.797839" y="165.238278" style="stroke: #000000; stroke-width: 0.8"/>
      </g>
     </g>
     <g id="text_7">
      <!-- $\mathdefault{0}$ -->
      <g transform="translate(32.318371 169.043451) scale(0.11 -0.11)">
       <use xlink:href="#CMR17-30" transform="scale(0.996264)"/>
      </g>
     </g>
    </g>
    <g id="ytick_2">
     <g id="line2d_7">
      <g>
       <use xlink:href="#mb95f1ba0f2" x="44.797839" y="135.315043" style="stroke: #000000; stroke-width: 0.8"/>
      </g>
     </g>
     <g id="text_8">
      <!-- $\mathdefault{10}$ -->
      <g transform="translate(26.838904 139.120216) scale(0.11 -0.11)">
       <use xlink:href="#CMR17-31" transform="scale(0.996264)"/>
       <use xlink:href="#CMR17-30" transform="translate(45.690477 0) scale(0.996264)"/>
      </g>
     </g>
    </g>
    <g id="ytick_3">
     <g id="line2d_8">
      <g>
       <use xlink:href="#mb95f1ba0f2" x="44.797839" y="105.391808" style="stroke: #000000; stroke-width: 0.8"/>
      </g>
     </g>
     <g id="text_9">
      <!-- $\mathdefault{20}$ -->
      <g transform="translate(26.838904 109.196981) scale(0.11 -0.11)">
       <use xlink:href="#CMR17-32" transform="scale(0.996264)"/>
       <use xlink:href="#CMR17-30" transform="translate(45.690477 0) scale(0.996264)"/>
      </g>
     </g>
    </g>
    <g id="ytick_4">
     <g id="line2d_9">
      <g>
       <use xlink:href="#mb95f1ba0f2" x="44.797839" y="75.468573" style="stroke: #000000; stroke-width: 0.8"/>
      </g>
     </g>
     <g id="text_10">
      <!-- $\mathdefault{30}$ -->
      <g transform="translate(26.838904 79.273746) scale(0.11 -0.11)">
       <defs>
        <path id="CMR17-33" d="M 1414 2157 
C 1984 2157 2234 1662 2234 1090 
C 2234 320 1824 25 1453 25 
C 1114 25 563 194 390 693 
C 422 680 454 680 486 680 
C 640 680 755 782 755 948 
C 755 1133 614 1216 486 1216 
C 378 1216 211 1165 211 926 
C 211 335 787 -128 1466 -128 
C 2176 -128 2720 430 2720 1085 
C 2720 1707 2208 2157 1600 2227 
C 2086 2328 2554 2756 2554 3329 
C 2554 3820 2048 4179 1472 4179 
C 890 4179 378 3829 378 3329 
C 378 3110 544 3072 627 3072 
C 762 3072 877 3155 877 3321 
C 877 3486 762 3569 627 3569 
C 602 3569 570 3569 544 3557 
C 730 3959 1235 4032 1459 4032 
C 1683 4032 2106 3925 2106 3320 
C 2106 3143 2080 2828 1862 2550 
C 1670 2304 1453 2304 1242 2284 
C 1210 2284 1062 2269 1037 2269 
C 992 2263 966 2257 966 2208 
C 966 2163 973 2157 1101 2157 
L 1414 2157 
z
" transform="scale(0.015625)"/>
       </defs>
       <use xlink:href="#CMR17-33" transform="scale(0.996264)"/>
       <use xlink:href="#CMR17-30" transform="translate(45.690477 0) scale(0.996264)"/>
      </g>
     </g>
    </g>
    <g id="ytick_5">
     <g id="line2d_10">
      <g>
       <use xlink:href="#mb95f1ba0f2" x="44.797839" y="45.545338" style="stroke: #000000; stroke-width: 0.8"/>
      </g>
     </g>
     <g id="text_11">
      <!-- $\mathdefault{40}$ -->
      <g transform="translate(26.838904 49.350511) scale(0.11 -0.11)">
       <use xlink:href="#CMR17-34" transform="scale(0.996264)"/>
       <use xlink:href="#CMR17-30" transform="translate(45.690477 0) scale(0.996264)"/>
      </g>
     </g>
    </g>
    <g id="ytick_6">
     <g id="line2d_11">
      <g>
       <use xlink:href="#mb95f1ba0f2" x="44.797839" y="15.622103" style="stroke: #000000; stroke-width: 0.8"/>
      </g>
     </g>
     <g id="text_12">
      <!-- $\mathdefault{50}$ -->
      <g transform="translate(26.838904 19.427276) scale(0.11 -0.11)">
       <defs>
        <path id="CMR17-35" d="M 730 3692 
C 794 3666 1056 3584 1325 3584 
C 1920 3584 2246 3911 2432 4100 
C 2432 4157 2432 4192 2394 4192 
C 2387 4192 2374 4192 2323 4163 
C 2099 4058 1837 3973 1517 3973 
C 1325 3973 1037 3999 723 4139 
C 653 4171 640 4171 634 4171 
C 602 4171 595 4164 595 4037 
L 595 2203 
C 595 2089 595 2057 659 2057 
C 691 2057 704 2070 736 2114 
C 941 2401 1222 2522 1542 2522 
C 1766 2522 2246 2382 2246 1289 
C 2246 1085 2246 715 2054 421 
C 1894 159 1645 25 1370 25 
C 947 25 518 320 403 814 
C 429 807 480 795 506 795 
C 589 795 749 840 749 1038 
C 749 1210 627 1280 506 1280 
C 358 1280 262 1190 262 1011 
C 262 454 704 -128 1382 -128 
C 2042 -128 2669 440 2669 1264 
C 2669 2030 2170 2624 1549 2624 
C 1222 2624 947 2503 730 2274 
L 730 3692 
z
" transform="scale(0.015625)"/>
       </defs>
       <use xlink:href="#CMR17-35" transform="scale(0.996264)"/>
       <use xlink:href="#CMR17-30" transform="translate(45.690477 0) scale(0.996264)"/>
      </g>
     </g>
    </g>
    <g id="text_13">
     <!-- Amplitude (V) -->
     <g transform="translate(20.099178 126.695035) rotate(-90) scale(0.11 -0.11)">
      <defs>
       <path id="CMSS17-41" d="M 2272 4416 
L 1722 4416 
L 166 0 
L 653 0 
L 1101 1280 
L 2816 1280 
L 3270 0 
L 3827 0 
L 2272 4416 
z
M 2694 1637 
L 1222 1637 
C 1530 2528 1914 3638 1958 3925 
L 1965 3925 
C 2010 3663 2138 3281 2246 2956 
L 2694 1637 
z
" transform="scale(0.015625)"/>
       <path id="CMSS17-6d" d="M 4288 1877 
C 4288 2308 4179 2816 3462 2816 
C 2982 2816 2694 2516 2566 2331 
C 2451 2670 2182 2816 1798 2816 
C 1363 2816 1088 2568 941 2389 
L 941 2758 
L 474 2758 
L 474 0 
L 960 0 
L 960 1559 
C 960 1939 1101 2428 1555 2428 
C 2138 2428 2138 2016 2138 1829 
L 2138 0 
L 2624 0 
L 2624 1559 
C 2624 1939 2765 2428 3219 2428 
C 3802 2428 3802 2016 3802 1829 
L 3802 0 
L 4288 0 
L 4288 1877 
z
" transform="scale(0.015625)"/>
       <path id="CMSS17-70" d="M 966 333 
C 1178 129 1466 -5 1773 -5 
C 2368 -5 2880 603 2880 1412 
C 2880 2159 2496 2816 1946 2816 
C 1626 2816 1242 2702 954 2472 
L 954 2765 
L 480 2765 
L 480 -1216 
L 966 -1216 
L 966 333 
z
M 966 2100 
C 1018 2176 1235 2415 1587 2415 
C 2035 2415 2394 1960 2394 1412 
C 2394 787 1958 384 1530 384 
C 1402 384 1267 415 1139 523 
C 966 674 966 768 966 857 
L 966 2100 
z
" transform="scale(0.015625)"/>
       <path id="CMSS17-6c" d="M 947 4416 
L 474 4416 
L 474 0 
L 947 0 
L 947 4416 
z
" transform="scale(0.015625)"/>
       <path id="CMSS17-69" d="M 979 4183 
L 442 4183 
L 442 3648 
L 979 3648 
L 979 4183 
z
M 947 2739 
L 474 2739 
L 474 0 
L 947 0 
L 947 2739 
z
" transform="scale(0.015625)"/>
       <path id="CMSS17-74" d="M 1069 2368 
L 1901 2368 
L 1901 2737 
L 1069 2737 
L 1069 3520 
L 614 3520 
L 614 2737 
L 109 2737 
L 109 2368 
L 602 2368 
L 602 749 
C 602 384 685 -64 1107 -64 
C 1427 -64 1722 25 2003 172 
L 1901 548 
C 1747 414 1562 337 1363 337 
C 1082 337 1069 696 1069 856 
L 1069 2368 
z
" transform="scale(0.015625)"/>
       <path id="CMSS17-64" d="M 2611 4416 
L 2138 4416 
L 2138 2438 
C 1939 2603 1613 2756 1254 2756 
C 672 2756 211 2131 211 1347 
C 211 562 666 -64 1235 -64 
C 1677 -64 1971 172 2125 306 
L 2125 -13 
L 2611 -13 
L 2611 4416 
z
M 2125 836 
C 2125 747 2125 653 1926 482 
C 1798 375 1645 325 1498 325 
C 1152 325 698 576 698 1340 
C 698 2134 1210 2368 1562 2368 
C 1798 2368 1990 2254 2125 2065 
L 2125 836 
z
" transform="scale(0.015625)"/>
       <path id="CMSS17-56" d="M 3910 4416 
L 3411 4416 
L 2304 1362 
C 2272 1273 2074 688 2035 484 
L 2029 484 
C 1978 726 1773 1292 1664 1604 
L 922 3672 
L 646 4416 
L 83 4416 
L 1715 0 
L 2278 0 
L 3910 4416 
z
" transform="scale(0.015625)"/>
      </defs>
      <use xlink:href="#CMSS17-41" transform="scale(0.996264)"/>
      <use xlink:href="#CMSS17-6d" transform="translate(62.217855 0) scale(0.996264)"/>
      <use xlink:href="#CMSS17-70" transform="translate(136.447109 0) scale(0.996264)"/>
      <use xlink:href="#CMSS17-6c" transform="translate(184.652052 0) scale(0.996264)"/>
      <use xlink:href="#CMSS17-69" transform="translate(206.832776 0) scale(0.996264)"/>
      <use xlink:href="#CMSS17-74" transform="translate(229.013499 0) scale(0.996264)"/>
      <use xlink:href="#CMSS17-75" transform="translate(262.845065 0) scale(0.996264)"/>
      <use xlink:href="#CMSS17-64" transform="translate(311.050008 0) scale(0.996264)"/>
      <use xlink:href="#CMSS17-65" transform="translate(359.254952 0) scale(0.996264)"/>
      <use xlink:href="#CMSS17-28" transform="translate(432.122886 0) scale(0.996264)"/>
      <use xlink:href="#CMSS17-56" transform="translate(468.556801 0) scale(0.996264)"/>
      <use xlink:href="#CMSS17-29" transform="translate(530.774655 0) scale(0.996264)"/>
     </g>
    </g>
   </g>
   <g id="line2d_12">
    <path d="M 61.857937 165.238278 
L 62.028623 164.041349 
L 62.19931 161.64749 
L 62.369996 161.64749 
L 62.540682 160.450561 
L 63.735486 160.450561 
L 63.906173 159.253631 
L 65.613036 159.253631 
L 65.783722 158.056702 
L 65.954409 159.253631 
L 67.149213 159.253631 
L 67.319899 158.056702 
L 68.514704 158.056702 
L 68.68539 156.859772 
L 68.856076 156.859772 
L 69.026763 155.662843 
L 69.538822 155.662843 
L 69.709508 154.465914 
L 70.221567 154.465914 
L 70.392253 153.268984 
L 70.733626 153.268984 
L 70.904312 152.072055 
L 71.245685 152.072055 
L 71.416371 150.875125 
L 73.464607 150.875125 
L 73.80598 153.268984 
L 73.976666 153.268984 
L 74.318039 155.662843 
L 74.488725 155.662843 
L 74.830098 158.056702 
L 75.000784 158.056702 
L 75.17147 159.253631 
L 75.342157 159.253631 
L 75.512843 160.450561 
L 76.024902 160.450561 
L 76.195588 159.253631 
L 76.366275 159.253631 
L 76.536961 158.056702 
L 76.878334 158.056702 
L 77.04902 156.859772 
L 77.731765 156.859772 
L 77.902451 158.056702 
L 78.073138 158.056702 
L 78.243824 159.253631 
L 78.41451 159.253631 
L 78.585197 160.450561 
L 78.755883 160.450561 
L 78.926569 161.64749 
L 79.097256 160.450561 
L 79.438628 160.450561 
L 79.609315 159.253631 
L 79.780001 159.253631 
L 79.950687 158.056702 
L 80.29206 158.056702 
L 80.462746 156.859772 
L 80.633433 158.056702 
L 81.145492 158.056702 
L 81.316178 159.253631 
L 81.657551 159.253631 
L 81.828237 158.056702 
L 81.998923 158.056702 
L 82.16961 156.859772 
L 82.340296 156.859772 
L 82.510982 155.662843 
L 83.705787 155.662843 
L 83.876473 154.465914 
L 84.047159 154.465914 
L 84.217846 153.268984 
L 84.388532 153.268984 
L 84.729904 150.875125 
L 84.900591 150.875125 
L 85.071277 149.678196 
L 85.754022 149.678196 
L 86.095395 147.284337 
L 86.266081 147.284337 
L 86.607454 144.890478 
L 86.77814 144.890478 
L 86.948827 143.693549 
L 87.460886 143.693549 
L 87.631572 142.496619 
L 87.802258 142.496619 
L 87.972945 141.29969 
L 88.143631 141.29969 
L 88.314317 140.102761 
L 88.65569 140.102761 
L 88.826376 138.905831 
L 88.997063 138.905831 
L 89.167749 140.102761 
L 89.679808 140.102761 
L 89.850494 141.29969 
L 90.021181 141.29969 
L 90.191867 142.496619 
L 90.362553 142.496619 
L 90.874612 146.087408 
L 91.215985 149.678196 
L 91.89873 154.465914 
L 92.581475 154.465914 
L 92.752162 153.268984 
L 92.922848 153.268984 
L 93.264221 150.875125 
L 93.434907 150.875125 
L 93.605593 149.678196 
L 94.288339 149.678196 
L 94.971084 154.465914 
L 95.312457 158.056702 
L 95.824516 158.056702 
L 96.677947 152.072055 
L 97.190006 152.072055 
L 97.360693 153.268984 
L 97.531379 153.268984 
L 97.872752 155.662843 
L 98.384811 155.662843 
L 98.726183 153.268984 
L 98.89687 150.875125 
L 99.067556 150.875125 
L 99.408929 148.481266 
L 99.579615 149.678196 
L 99.920987 149.678196 
L 100.091674 150.875125 
L 100.26236 150.875125 
L 101.286478 143.693549 
L 101.457164 143.693549 
L 101.627851 142.496619 
L 102.310596 142.496619 
L 102.481282 141.29969 
L 102.822655 137.708902 
L 103.5054 132.921184 
L 103.846773 132.921184 
L 104.017459 131.724255 
L 104.188146 131.724255 
L 105.041577 125.739608 
L 105.212264 125.739608 
L 105.38295 124.542678 
L 105.553636 125.739608 
L 106.577754 125.739608 
L 107.260499 130.527325 
L 108.284617 143.693549 
L 108.796676 147.284337 
L 108.967363 147.284337 
L 109.138049 148.481266 
L 109.308735 147.284337 
L 109.479422 147.284337 
L 109.820794 144.890478 
L 109.991481 144.890478 
L 110.50354 141.29969 
L 111.015599 141.29969 
L 111.356971 144.890478 
L 111.527658 146.087408 
L 112.039717 153.268984 
L 112.381089 153.268984 
L 112.893148 149.678196 
L 113.234521 146.087408 
L 113.405207 144.890478 
L 113.74658 144.890478 
L 113.917266 143.693549 
L 114.258639 146.087408 
L 114.600011 149.678196 
L 114.941384 149.678196 
L 115.453443 146.087408 
L 115.965502 140.102761 
L 116.136188 138.905831 
L 116.306875 138.905831 
L 116.477561 140.102761 
L 116.648247 140.102761 
L 116.818934 141.29969 
L 117.160306 141.29969 
L 117.330993 140.102761 
L 118.184424 129.330396 
L 118.355111 129.330396 
L 118.525797 128.133467 
L 118.86717 128.133467 
L 119.379229 124.542678 
L 120.23266 113.770314 
L 120.403347 113.770314 
L 120.744719 111.376455 
L 120.915406 111.376455 
L 121.086092 110.179526 
L 121.768837 101.80102 
L 121.939523 100.60409 
L 122.451582 100.60409 
L 122.622269 101.80102 
L 122.792955 101.80102 
L 122.963641 102.997949 
L 123.305014 102.997949 
L 123.646387 105.391808 
L 123.987759 111.376455 
L 125.523936 142.496619 
L 125.694623 143.693549 
L 125.865309 143.693549 
L 126.377368 140.102761 
L 127.2308 129.330396 
L 127.401486 128.133467 
L 127.742859 128.133467 
L 127.913545 129.330396 
L 129.108349 146.087408 
L 129.449722 143.693549 
L 130.303153 132.921184 
L 130.644526 130.527325 
L 130.815212 130.527325 
L 131.497958 135.315043 
L 131.83933 135.315043 
L 132.010017 134.118114 
L 133.034135 120.95189 
L 133.71688 120.95189 
L 134.228939 117.361102 
L 134.740998 108.982596 
L 134.911684 105.391808 
L 135.082371 104.194879 
L 135.423743 100.60409 
L 135.59443 100.60409 
L 137.813352 70.680855 
L 137.984038 69.483926 
L 138.83747 57.514632 
L 139.008156 57.514632 
L 139.178842 56.317702 
L 139.349529 56.317702 
L 139.520215 57.514632 
L 139.690901 57.514632 
L 139.861588 58.711561 
L 140.20296 58.711561 
L 140.715019 65.893138 
L 141.909824 100.60409 
L 142.763255 134.118114 
L 142.933942 136.511972 
L 143.275314 136.511972 
L 143.787373 128.133467 
L 144.299432 118.558031 
L 144.640805 114.967243 
L 145.152864 114.967243 
L 145.835609 125.739608 
L 146.006295 130.527325 
L 146.347668 132.921184 
L 146.859727 129.330396 
L 147.2011 123.345749 
L 147.713159 117.361102 
L 148.054531 117.361102 
L 148.395904 119.754961 
L 148.56659 119.754961 
L 148.737277 120.95189 
L 148.907963 120.95189 
L 149.249336 118.558031 
L 150.273454 105.391808 
L 150.614826 102.997949 
L 150.956199 102.997949 
L 153.516494 67.090067 
L 153.857866 58.711561 
L 154.199239 52.726914 
L 154.369925 49.136126 
L 154.540612 47.939197 
L 155.223357 37.166832 
L 155.56473 31.182185 
L 156.076789 24.000609 
L 156.247475 24.000609 
L 156.588848 21.60675 
L 156.759534 22.803679 
L 157.100907 22.803679 
L 157.271593 24.000609 
L 157.954338 34.772973 
L 158.637083 56.317702 
L 159.490515 95.816373 
L 160.002574 117.361102 
L 160.17326 120.95189 
L 160.343947 122.14882 
L 160.514633 122.14882 
L 161.026692 113.770314 
L 161.709437 100.60409 
L 161.880124 99.407161 
L 162.221496 99.407161 
L 162.562869 104.194879 
L 163.074928 120.95189 
L 163.416301 131.724255 
L 163.586987 132.921184 
L 163.757673 131.724255 
L 164.269732 123.345749 
L 164.781791 113.770314 
L 164.952478 111.376455 
L 165.123164 111.376455 
L 165.464537 113.770314 
L 165.805909 119.754961 
L 166.147282 123.345749 
L 166.488654 120.95189 
L 167.1714 107.785667 
L 167.512772 104.194879 
L 167.854145 104.194879 
L 168.024831 105.391808 
L 168.366204 105.391808 
L 168.53689 104.194879 
L 168.878263 98.210232 
L 169.390322 87.437867 
L 169.561008 86.240938 
L 169.731695 83.847079 
L 169.902381 83.847079 
L 170.243754 81.45322 
L 170.926499 70.680855 
L 171.438558 59.908491 
L 171.609244 58.711561 
L 171.950617 55.120773 
L 172.29199 52.726914 
L 173.145421 41.95455 
L 173.316107 40.75762 
L 173.486794 40.75762 
L 174.681598 49.136126 
L 175.022971 56.317702 
L 176.90052 118.558031 
L 177.071207 120.95189 
L 177.241893 120.95189 
L 177.412579 122.14882 
L 177.583266 120.95189 
L 178.607384 107.785667 
L 178.948756 107.785667 
L 179.119443 108.982596 
L 179.460815 114.967243 
L 180.314247 137.708902 
L 180.484933 138.905831 
L 180.655619 137.708902 
L 181.850424 122.14882 
L 182.191796 124.542678 
L 182.703855 134.118114 
L 183.045228 137.708902 
L 183.215914 136.511972 
L 184.240032 122.14882 
L 184.581405 122.14882 
L 184.922778 125.739608 
L 185.093464 126.936537 
L 185.434837 124.542678 
L 186.458955 110.179526 
L 187.1417 110.179526 
L 188.50719 92.225585 
L 188.848563 92.225585 
L 189.189936 89.831726 
L 189.872681 81.45322 
L 190.043367 80.256291 
L 190.38474 80.256291 
L 190.896799 83.847079 
L 191.238172 83.847079 
L 191.579544 86.240938 
L 192.091603 94.619443 
L 192.774349 110.179526 
L 193.286408 122.14882 
L 193.798467 131.724255 
L 194.139839 134.118114 
L 194.481212 134.118114 
L 194.822585 131.724255 
L 195.334643 125.739608 
L 195.50533 124.542678 
L 195.676016 124.542678 
L 195.846702 125.739608 
L 196.017389 125.739608 
L 196.700134 136.511972 
L 197.212193 146.087408 
L 197.553566 146.087408 
L 197.724252 144.890478 
L 198.406997 136.511972 
L 198.74837 134.118114 
L 198.919056 135.315043 
L 199.089743 135.315043 
L 199.772488 144.890478 
L 200.113861 144.890478 
L 200.284547 143.693549 
L 200.967292 135.315043 
L 201.137979 134.118114 
L 201.479351 134.118114 
L 201.99141 137.708902 
L 202.162097 137.708902 
L 202.503469 135.315043 
L 203.186214 126.936537 
L 203.356901 125.739608 
L 204.039646 125.739608 
L 204.381019 123.345749 
L 205.063764 114.967243 
L 205.23445 113.770314 
L 205.575823 113.770314 
L 205.746509 112.573384 
L 206.087882 112.573384 
L 206.258568 111.376455 
L 206.599941 107.785667 
L 206.770627 106.588737 
L 206.941314 106.588737 
L 207.112 105.391808 
L 207.282686 106.588737 
L 207.453373 106.588737 
L 207.965432 110.179526 
L 208.136118 110.179526 
L 208.648177 113.770314 
L 209.501609 126.936537 
L 210.013667 136.511972 
L 210.696413 144.890478 
L 211.208472 144.890478 
L 211.379158 143.693549 
L 211.549844 143.693549 
L 212.403276 137.708902 
L 212.744649 137.708902 
L 212.915335 138.905831 
L 213.939453 153.268984 
L 214.280826 153.268984 
L 214.451512 152.072055 
L 214.792885 148.481266 
L 215.304944 144.890478 
L 215.817003 144.890478 
L 216.329062 148.481266 
L 216.499748 150.875125 
L 216.841121 150.875125 
L 217.865238 143.693549 
L 218.377297 143.693549 
L 218.547984 144.890478 
L 219.060043 144.890478 
L 220.084161 137.708902 
L 220.766906 137.708902 
L 220.937592 136.511972 
L 221.108279 136.511972 
L 222.132397 129.330396 
L 222.815142 129.330396 
L 222.985828 128.133467 
L 223.156515 128.133467 
L 223.327201 126.936537 
L 223.497887 126.936537 
L 223.668574 125.739608 
L 224.009946 125.739608 
L 224.180633 126.936537 
L 224.351319 126.936537 
L 224.522005 128.133467 
L 224.692691 128.133467 
L 225.034064 130.527325 
L 225.20475 130.527325 
L 225.546123 132.921184 
L 226.570241 146.087408 
L 226.740927 147.284337 
L 227.252986 153.268984 
L 227.423673 154.465914 
L 227.935732 154.465914 
L 228.106418 153.268984 
L 228.277104 153.268984 
L 228.789163 149.678196 
L 228.95985 149.678196 
L 229.130536 148.481266 
L 229.471909 148.481266 
L 229.642595 149.678196 
L 229.813281 149.678196 
L 230.154654 152.072055 
L 230.496027 155.662843 
L 230.666713 156.859772 
L 231.178772 156.859772 
L 231.520145 154.465914 
L 231.690831 154.465914 
L 231.861517 153.268984 
L 232.032203 153.268984 
L 232.20289 152.072055 
L 232.714949 152.072055 
L 232.885635 153.268984 
L 233.056321 153.268984 
L 233.227008 154.465914 
L 233.739067 154.465914 
L 234.080439 152.072055 
L 234.251126 152.072055 
L 234.421812 150.875125 
L 234.592498 150.875125 
L 234.763185 149.678196 
L 235.104557 149.678196 
L 235.275244 150.875125 
L 235.616616 150.875125 
L 235.787303 149.678196 
L 236.128675 149.678196 
L 236.470048 147.284337 
L 236.811421 147.284337 
L 236.982107 146.087408 
L 237.835539 146.087408 
L 238.006225 144.890478 
L 238.347598 144.890478 
L 238.518284 143.693549 
L 239.713088 143.693549 
L 239.883774 142.496619 
L 240.737206 142.496619 
L 240.907892 143.693549 
L 241.249265 143.693549 
L 241.419951 144.890478 
L 241.761324 144.890478 
L 242.102697 147.284337 
L 242.273383 147.284337 
L 242.785442 150.875125 
L 242.956128 150.875125 
L 243.297501 154.465914 
L 243.468187 154.465914 
L 243.80956 156.859772 
L 243.980246 156.859772 
L 244.150933 158.056702 
L 245.175051 158.056702 
L 245.345737 156.859772 
L 247.0526 156.859772 
L 247.223286 158.056702 
L 248.588777 158.056702 
L 248.759463 156.859772 
L 252.343876 156.859772 
L 252.514563 155.662843 
L 254.05074 155.662843 
L 254.221426 154.465914 
L 255.586916 154.465914 
L 255.757603 153.268984 
L 257.29378 153.268984 
L 257.464466 152.072055 
L 259.171329 152.072055 
L 259.342016 153.268984 
L 260.195447 153.268984 
L 260.366134 154.465914 
L 260.878193 154.465914 
L 261.048879 155.662843 
L 261.390252 155.662843 
L 261.560938 156.859772 
L 261.90231 156.859772 
L 262.072997 158.056702 
L 262.414369 158.056702 
L 262.585056 159.253631 
L 263.097115 159.253631 
L 263.267801 160.450561 
L 268.90045 160.450561 
L 269.071136 159.253631 
L 271.119372 159.253631 
L 271.290058 158.056702 
L 272.14349 158.056702 
L 272.314176 156.859772 
L 273.167608 156.859772 
L 273.338294 155.662843 
L 274.191726 155.662843 
L 274.362412 154.465914 
L 275.215844 154.465914 
L 275.38653 153.268984 
L 277.605452 153.268984 
L 277.776139 154.465914 
L 278.117511 154.465914 
L 278.288198 155.662843 
L 278.62957 155.662843 
L 278.800257 156.859772 
L 278.970943 156.859772 
L 279.141629 158.056702 
L 279.312316 158.056702 
L 279.483002 159.253631 
L 279.653688 159.253631 
L 279.995061 161.64749 
L 280.336434 161.64749 
L 280.50712 162.844419 
L 280.677806 162.844419 
L 280.848493 161.64749 
L 281.872611 161.64749 
L 282.043297 160.450561 
L 282.555356 160.450561 
L 282.726042 161.64749 
L 285.62771 161.64749 
L 285.798396 160.450561 
L 285.969082 160.450561 
L 286.139769 161.64749 
L 286.310455 160.450561 
L 286.481141 160.450561 
L 286.651828 161.64749 
L 286.822514 160.450561 
L 287.846632 160.450561 
L 288.017318 159.253631 
L 289.212123 159.253631 
L 289.382809 158.056702 
L 290.236241 158.056702 
L 290.406927 156.859772 
L 291.089672 156.859772 
L 291.260358 155.662843 
L 292.11379 155.662843 
L 292.284476 154.465914 
L 294.844771 154.465914 
L 295.015458 155.662843 
L 295.35683 155.662843 
L 295.527517 156.859772 
L 295.698203 156.859772 
L 295.868889 158.056702 
L 296.039576 158.056702 
L 296.210262 159.253631 
L 296.380948 159.253631 
L 296.551635 160.450561 
L 296.722321 160.450561 
L 296.893007 161.64749 
L 298.258498 161.64749 
L 298.429184 160.450561 
L 299.623988 160.450561 
L 299.794675 161.64749 
L 300.136047 161.64749 
L 300.306734 162.844419 
L 301.330852 162.844419 
L 301.501538 161.64749 
L 302.867029 161.64749 
L 303.037715 162.844419 
L 303.549774 162.844419 
L 303.72046 161.64749 
L 304.403206 161.64749 
L 304.573892 160.450561 
L 304.744578 160.450561 
L 304.915265 161.64749 
L 305.427324 161.64749 
L 305.59801 160.450561 
L 306.280755 160.450561 
L 306.451441 159.253631 
L 307.646246 159.253631 
L 307.816932 158.056702 
L 308.670364 158.056702 
L 308.84105 156.859772 
L 309.865168 156.859772 
L 310.035854 155.662843 
L 311.401345 155.662843 
L 311.572031 156.859772 
L 312.08409 156.859772 
L 312.254777 158.056702 
L 312.596149 158.056702 
L 312.766836 159.253631 
L 312.937522 159.253631 
L 313.108208 160.450561 
L 313.449581 160.450561 
L 313.620267 161.64749 
L 315.156444 161.64749 
L 315.32713 160.450561 
L 316.180562 160.450561 
L 316.351248 161.64749 
L 316.863307 161.64749 
L 317.033994 162.844419 
L 317.20468 162.844419 
L 317.375366 164.041349 
L 317.716739 164.041349 
L 317.887425 162.844419 
L 318.228798 162.844419 
L 318.399484 161.64749 
L 319.252916 161.64749 
L 319.423602 162.844419 
L 319.764975 162.844419 
L 319.935661 164.041349 
L 320.106348 164.041349 
L 320.277034 162.844419 
L 320.618406 162.844419 
L 320.789093 161.64749 
L 321.813211 161.64749 
L 321.983897 162.844419 
L 322.154583 161.64749 
L 322.32527 162.844419 
L 322.495956 161.64749 
L 323.008015 161.64749 
L 323.178701 160.450561 
L 324.885565 160.450561 
L 325.056251 159.253631 
L 326.421742 159.253631 
L 326.592428 158.056702 
L 328.81135 158.056702 
L 328.982036 159.253631 
L 329.494095 159.253631 
L 329.664782 160.450561 
L 330.176841 160.450561 
L 330.347527 161.64749 
L 331.030272 161.64749 
L 331.200959 162.844419 
L 331.713018 162.844419 
L 331.883704 161.64749 
L 333.419881 161.64749 
L 333.590567 162.844419 
L 333.93194 162.844419 
L 334.102626 164.041349 
L 334.956058 164.041349 
L 335.126744 162.844419 
L 336.150862 162.844419 
L 336.321548 164.041349 
L 337.516353 164.041349 
L 337.687039 162.844419 
L 338.881843 162.844419 
L 339.05253 164.041349 
L 339.223216 164.041349 
L 339.393902 162.844419 
L 339.905961 162.844419 
L 340.076648 161.64749 
L 343.149001 161.64749 
L 343.319688 160.450561 
L 345.709296 160.450561 
L 345.879983 161.64749 
L 346.562728 161.64749 
L 346.733414 162.844419 
L 347.41616 162.844419 
L 347.586846 164.041349 
L 348.952337 164.041349 
L 349.123023 162.844419 
L 349.976454 162.844419 
L 350.147141 164.041349 
L 353.560867 164.041349 
L 353.731554 165.238278 
L 354.072926 165.238278 
L 354.243613 164.041349 
L 358.510771 164.041349 
L 358.681457 162.844419 
L 360.900379 162.844419 
L 361.071066 161.64749 
L 361.241752 162.844419 
L 363.119302 162.844419 
L 363.289988 164.041349 
L 367.38646 164.041349 
L 367.557146 165.238278 
L 369.264009 165.238278 
L 369.434696 164.041349 
L 369.605382 165.238278 
L 373.531167 165.238278 
L 373.701854 164.041349 
L 381.553425 164.041349 
L 381.724111 165.238278 
L 382.748229 165.238278 
L 382.918915 164.041349 
L 383.089602 165.238278 
L 383.260288 164.041349 
L 383.601661 164.041349 
L 383.772347 165.238278 
L 403.059902 165.238278 
L 403.059902 165.238278 
" clip-path="url(#pbca095f5dd)" style="fill: none; stroke: #1f77b4; stroke-width: 1.5; stroke-linecap: square"/>
   </g>
   <g id="line2d_13">
    <defs>
     <path id="meed9ece15d" d="M 0 3 
C 0.795609 3 1.55874 2.683901 2.12132 2.12132 
C 2.683901 1.55874 3 0.795609 3 0 
C 3 -0.795609 2.683901 -1.55874 2.12132 -2.12132 
C 1.55874 -2.683901 0.795609 -3 0 -3 
C -0.795609 -3 -1.55874 -2.683901 -2.12132 -2.12132 
C -2.683901 -1.55874 -3 -0.795609 -3 0 
C -3 0.795609 -2.683901 1.55874 -2.12132 2.12132 
C -1.55874 2.683901 -0.795609 3 0 3 
z
" style="stroke: #ff7f0e"/>
    </defs>
    <g clip-path="url(#pbca095f5dd)">
     <use xlink:href="#meed9ece15d" x="72.440489" y="150.875125" style="fill: #ff7f0e; stroke: #ff7f0e"/>
     <use xlink:href="#meed9ece15d" x="88.826376" y="138.905831" style="fill: #ff7f0e; stroke: #ff7f0e"/>
     <use xlink:href="#meed9ece15d" x="105.38295" y="124.542678" style="fill: #ff7f0e; stroke: #ff7f0e"/>
     <use xlink:href="#meed9ece15d" x="122.11021" y="100.60409" style="fill: #ff7f0e; stroke: #ff7f0e"/>
     <use xlink:href="#meed9ece15d" x="139.178842" y="56.317702" style="fill: #ff7f0e; stroke: #ff7f0e"/>
     <use xlink:href="#meed9ece15d" x="156.588848" y="21.60675" style="fill: #ff7f0e; stroke: #ff7f0e"/>
     <use xlink:href="#meed9ece15d" x="173.316107" y="40.75762" style="fill: #ff7f0e; stroke: #ff7f0e"/>
     <use xlink:href="#meed9ece15d" x="190.214054" y="80.256291" style="fill: #ff7f0e; stroke: #ff7f0e"/>
     <use xlink:href="#meed9ece15d" x="207.112" y="105.391808" style="fill: #ff7f0e; stroke: #ff7f0e"/>
     <use xlink:href="#meed9ece15d" x="223.83926" y="125.739608" style="fill: #ff7f0e; stroke: #ff7f0e"/>
     <use xlink:href="#meed9ece15d" x="240.225147" y="142.496619" style="fill: #ff7f0e; stroke: #ff7f0e"/>
     <use xlink:href="#meed9ece15d" x="258.317898" y="152.072055" style="fill: #ff7f0e; stroke: #ff7f0e"/>
     <use xlink:href="#meed9ece15d" x="276.410648" y="153.268984" style="fill: #ff7f0e; stroke: #ff7f0e"/>
     <use xlink:href="#meed9ece15d" x="293.479281" y="154.465914" style="fill: #ff7f0e; stroke: #ff7f0e"/>
     <use xlink:href="#meed9ece15d" x="310.7186" y="155.662843" style="fill: #ff7f0e; stroke: #ff7f0e"/>
     <use xlink:href="#meed9ece15d" x="327.616546" y="158.056702" style="fill: #ff7f0e; stroke: #ff7f0e"/>
     <use xlink:href="#meed9ece15d" x="344.514492" y="160.450561" style="fill: #ff7f0e; stroke: #ff7f0e"/>
     <use xlink:href="#meed9ece15d" x="361.071066" y="161.64749" style="fill: #ff7f0e; stroke: #ff7f0e"/>
     <use xlink:href="#meed9ece15d" x="377.627639" y="164.041349" style="fill: #ff7f0e; stroke: #ff7f0e"/>
    </g>
   </g>
   <g id="patch_3">
    <path d="M 44.797839 172.419855 
L 44.797839 14.425173 
" style="fill: none; stroke: #000000; stroke-width: 0.8; stroke-linejoin: miter; stroke-linecap: square"/>
   </g>
   <g id="patch_4">
    <path d="M 420.12 172.419855 
L 420.12 14.425173 
" style="fill: none; stroke: #000000; stroke-width: 0.8; stroke-linejoin: miter; stroke-linecap: square"/>
   </g>
   <g id="patch_5">
    <path d="M 44.797839 172.419855 
L 420.12 172.419855 
" style="fill: none; stroke: #000000; stroke-width: 0.8; stroke-linejoin: miter; stroke-linecap: square"/>
   </g>
   <g id="patch_6">
    <path d="M 44.797839 14.425173 
L 420.12 14.425173 
" style="fill: none; stroke: #000000; stroke-width: 0.8; stroke-linejoin: miter; stroke-linecap: square"/>
   </g>
  </g>
 </g>
 <defs>
  <clipPath id="pbca095f5dd">
   <rect x="44.797839" y="14.425173" width="375.322161" height="157.994681"/>
  </clipPath>
 </defs>
</svg>
